<svg id="Layer_1" xmlns="http://www.w3.org/2000/svg" xmlns:xlink="http://www.w3.org/1999/xlink" viewBox="0 0 1602.98 377.68" style="enable-background:new 0 0 1602.98 377.68"><style>.st0{fill:#fff}</style><g><g><path class="st0" d="M271.41 40.84c-3.51 3.8-7.37 6.77-11.02 9.98-8.92 7.85-17.93 15.6-26.9 23.39-.18.16-.37.3-.52.48-1.52 1.81-3.09 1.8-5.23.78-11.98-5.71-23.83-11.68-35.6-17.81-2.04-1.06-3.69-1.04-5.68-.05-28.39 14.23-56.79 28.42-85.2 42.61-14.1 7.04-28.17 14.13-42.33 21.05-1.99.97-2.39 2.14-2.37 4.1.08 9.39.03 18.78.03 28.17.0 32.45-.01 64.9-.01 97.35.0.83.07 1.67-.02 2.49-.15 1.42.53 2.01 1.77 2.62 25.89 12.88 51.76 25.81 77.62 38.75 16.74 8.38 33.49 16.75 50.19 25.23 2.43 1.24 4.47.92 6.72-.22 10.47-5.3 20.97-10.53 31.46-15.79.53-.27 1.09-.49 1.59-.8 1.34-.83 2.36-.81 3.7.36 10.72 9.4 21.56 18.67 32.3 28.05 2.3 2.01 5.02 3.59 6.85 6.26-.76 1.29-2.12 1.55-3.22 2.1-22.9 11.42-45.82 22.8-68.74 34.19-.32.16-.63.34-.95.47-2.3.92-4.29 3.27-6.66 3.05-2.31-.22-4.5-1.95-6.72-3.06C122.68 344.74 62.9 314.85 3.08 285.05c-2.21-1.1-2.99-2.33-2.99-4.82C.14 219.36.12 158.51.0 97.65.0 95.08.93 93.88 3.03 92.79 23.74 82 44.84 72.01 65.68 61.49c26.66-13.45 53.48-26.58 80.08-40.16 13.93-7.11 28.02-13.91 41.99-20.93 1.26-.64 2.13-.45 3.26.12 19.59 9.84 39.2 19.65 58.8 29.47C256.91 33.54 264 37.11 271.41 40.84zM301.46 269.07c12.28 10.69 24.59 21.33 36.83 32.06 1.46 1.28 2.61 1.03 4.12.27 10.9-5.47 21.8-10.98 32.8-16.25 2.48-1.19 3.38-2.45 3.38-5.29-.1-60.61-.07-121.22-.06-181.83.0-.59-.08-1.2.02-1.78.26-1.58-.56-2.31-1.88-2.96-10.63-5.24-21.25-10.49-31.81-15.85-1.81-.92-2.97-.65-4.42.61-11.93 10.36-23.92 20.65-35.88 30.97-1.07.93-2.21 1.82-3 3.13 2.74 1.91 5.8 3.19 8.77 4.63 3.3 1.6 6.57 3.28 9.89 4.85 1.36.64 2 1.54 1.8 3.06-.08.58-.01 1.19-.01 1.78.0 41.48.01 82.95.01 124.43.0.71-.08 1.44.02 2.14.21 1.55-.53 2.32-1.87 2.97-5.75 2.81-11.45 5.71-17.14 8.63-1.25.64-2.67 1.02-3.67 2.14C299.79 267.78 300.67 268.39 301.46 269.07z"/><path class="st0" d="M195.22 190.28c7.19-7.11 170.48-147.67 179.93-155.79.74-.64 1.68-1.19 1.81-2.26-.62-.45-1.1-.29-1.54-.17-18.61 5.33-93.78 26.68-112.75 32.06-1.34.38-2.83.59-3.94 1.56-3.91 3.42-83.83 71.48-85.15 73.82-1.68 1.35-1.67 2.03-3.2 2.09-.42-1.14-.37-2.31-.37-3.44-.03-8.54-.05-17.07.03-25.61.01-1.68-.45-2.29-2.2-2.25-5.21.12-39.88.11-52 .1-2.86.03-2.86.03-2.92 2.43-.01.47.0.95.0 1.42.0 50.77.0 101.53.0 152.3.0.83.0 1.66.0 2.49.0.53.21.89.72 1.06 18.08.0 36.17.01 54.25.0.47.0.94-.09 1.4-.14 1.28-.51.65-1.63.66-2.44.06-8.65.04-17.31.05-25.96.0-.86.09-1.73.17-2.99 2.39 2.08 79.97 69.36 84.01 72.3 2.31 1.89 4.04 3.37 6.65 4.15 9.13 2.75 106.55 32.64 115.34 35.36.9.28 1.87.76 3.14-.05C376.96 348.3 196.13 192.66 195.22 190.28z"/></g><g><path class="st0" d="M1594.22 182.32c-.07 3.99-.61 7.94-1.93 11.75-1.65 4.79-4.77 8.11-9.62 9.82-4.22 1.49-8.55 2.35-12.99 2.42-8.99.14-17.98.12-26.98.12-18.1.01-36.19-.01-54.29.01-4.34.01-8.63-.3-12.91-1.01-8.81-1.47-14-6.54-15.5-15.38-.64-3.72-1.03-7.46-.98-11.24.01-1 .2-1.58 1.38-1.8 7.7-1.4 15.38-2.88 23.37-4.39.0 3.62.0 7.04.0 10.46.0 2.62-.29 2.63 2.41 2.63 26.98-.01 53.96.0 80.94-.01 2.31.0 2.35-.04 2.35-2.37.02-6.99-.02-13.98.03-20.97.01-1.36-.27-2.13-1.81-1.97-.77.08-1.55.01-2.33.01-23.87.0-47.74-.02-71.61.01-4.9.01-9.77-.26-14.52-1.42-8.91-2.18-13.22-5.71-14.7-16.43-1.33-9.58-1.06-19.24-.06-28.86.15-1.42.51-2.83.88-4.21 1.59-5.93 5.34-9.84 11.24-11.59 4.7-1.39 9.52-2.06 14.42-2.07 12.32-.01 24.65-.02 36.97-.02 12.43.0 24.87.01 37.3.02 4.56.0 9.02.68 13.46 1.75 7.5 1.8 11.38 6.77 12.88 14 .59 2.83.83 5.7.84 8.59.01 2.29.01 2.33-2.27 2.82-5.51 1.19-11.03 2.33-16.55 3.49-1.84.39-3.67.79-5.72 1.23-.48-3.11-.14-6.18-.21-9.23-.1-3.86.49-3.35-3.34-3.35-24.2-.01-48.41-.01-72.61.0-3.86.0-3.29-.41-3.31 3.38-.03 5.99.0 11.98-.01 17.98-.01 2.55-.12 2.53 2.56 2.52 22.76-.01 45.52-.01 68.28.0 3.66.0 7.33-.02 10.99.14 4.21.19 8.33.96 12.34 2.37 4.97 1.75 8.12 5.15 9.76 10.1 1.23 3.72 1.77 7.55 1.84 11.42C1594.34 169.45 1594.33 175.89 1594.22 182.32zM1203.46 95.76c-5.99.07-11.99.11-17.98-.01-1.97-.04-3.24.6-4.49 2.11-14.85 17.94-29.76 35.83-44.67 53.72-3.04 3.65-6.12 7.28-9.34 11.11-.56-.67-.99-1.17-1.42-1.67-9.63-11.32-19.26-22.64-28.89-33.96-8.27-9.71-16.57-19.39-24.77-29.17-1.36-1.62-2.76-2.2-4.83-2.14-5.33.14-10.66.02-15.99.06-4.36.03-3.72-.61-3.72 3.62-.02 34.4-.01 68.8-.01 103.2.0.78.05 1.56-.01 2.33-.09 1.19.46 1.52 1.57 1.5 3.11-.05 6.22-.01 9.33-.01 3.33.0 6.66-.07 9.99.03 1.51.05 2-.52 1.82-1.92-.04-.33-.01-.66-.01-1 0-22.3-.02-44.61.02-66.91.01-3.08-.46-6.12-.65-10 3.47 6.92 8.05 12.05 12.41 17.34 2.32 2.83 4.61 5.68 6.93 8.51 10.61 12.96 21.21 25.91 31.84 38.86.48.59.79 1.54 1.59 1.62 1.65.17 3.32.2 4.98.11 1.25-.07 1.72-1.3 2.4-2.13 8.96-10.87 17.97-21.69 26.8-32.66 8.05-9.99 17.03-19.28 23.21-30.69.03-.06.18-.07.55-.21-.58 4.52-.85 8.92-.84 13.36.05 19.31.02 38.62.02 57.93.0 1.89-.02 3.77.01 5.66.03 2.07.05 2.1 2.25 2.11 6.55.02 13.1.01 19.65.01 4.09.0 4.09.0 4.09-3.93.0-34.29.0-68.58.0-102.87.0-.67-.07-1.34.01-2C1205.49 96.18 1204.92 95.74 1203.46 95.76zM1398.67 95.78c-7.44.01-14.87-.01-22.31.01-3.89.01-3.34-.4-3.34 3.35-.01 27.74.0 55.47-.02 83.21.0 3.7.54 3.33-3.38 3.34-24.31.01-48.62.0-72.93.0-4.03.0-4.03.0-4.03-4.02.0-27.63.0-55.25.0-82.88.0-3.28.41-3-3.02-3.01-7.21-.01-14.43-.02-21.64.01-3.91.02-3.39-.52-3.39 3.28-.01 26.63.0 53.26-.02 79.88.0 3.44.06 6.88.69 10.27 1.96 10.48 6.05 13.64 14.25 15.76 4.53 1.18 9.17 1.46 13.84 1.45 13.1-.03 26.2-.01 39.29-.01.0-.03.0-.06.0-.09 14.65.0 29.3.04 43.95-.03 4.34-.02 8.57-.89 12.69-2.28 4.98-1.67 8.22-5.03 9.86-10 1.26-3.82 1.88-7.76 1.88-11.75.05-28.07.03-56.14.05-84.21C1401.11 95.56 1400.95 95.78 1398.67 95.78zM603.44 95.96c-.99-.09-1.38-.16-1.77-.16-12.32-.01-24.64.02-36.96-.04-1.45-.01-2.54.52-3.65 1.29-20.43 14.09-40.87 28.17-61.32 42.23-1.17.81-2.23 1.83-3.86 2.29.0-1.18.0-2.27.0-3.37.0-12.87.0-25.74.0-38.61.0-.67-.07-1.34.01-2 .19-1.52-.54-1.84-1.91-1.82-5.11.06-10.21.03-15.32.03-3.54.0-7.07.0-11.01.0.0 1.5.0 2.6.0 3.7.0 30.18.0 60.36.0 90.54.0 4.55.0 9.1.0 13.65.0 2.61-.43 2.78 2.65 2.77 5.55-.02 11.1-.01 16.65-.01 2.33.0 4.66-.05 6.99.02 1.34.04 2.14-.24 1.95-1.79-.08-.66-.01-1.33-.01-2 0-13.76-.01-27.52.01-41.28.0-1.08-.22-2.18.25-3.36.97.62 1.9 1.19 2.82 1.81 22.34 15.02 44.68 30.03 66.99 45.1 1.54 1.04 3.05 1.54 4.92 1.54 12.99-.06 25.98-.03 38.96-.05.94.0 1.94.27 3.03-.38-29.72-19.35-59.34-38.64-89.28-58.13C550.3 130.53 576.63 113.4 603.44 95.96zM988.16 120.85c0 20.19-.02 40.37.02 60.56.01 3.9-.43 7.74-1.46 11.49-1.55 5.63-5.01 9.56-10.66 11.32-4.13 1.29-8.38 2.11-12.72 2.12-16.64.04-33.29.01-49.93.01.0.0.0-.01.0-.01-16.53.0-33.06.03-49.6-.02-4.45-.01-8.79-.87-13.01-2.3-4.99-1.68-8.18-5.1-9.84-10.02-1.35-4.03-1.86-8.22-1.88-12.42-.09-20.3-.07-40.59-.01-60.89.01-3.2.49-6.38 1.1-9.54 1.5-7.76 6.27-12.21 13.79-13.89 4-.89 8.06-1.45 12.18-1.44 31.73.01 63.47.0 95.2.01 4 0 7.96.52 11.85 1.41 8.6 1.98 12.78 6.61 14.29 15.36C987.96 115.34 988.16 118.08 988.16 120.85zM960.14 117.47c.04-1.45-.48-2.03-1.9-1.87-.55.06-1.11.01-1.66.01-28.51.0-57.02.0-85.54.0-.78.0-1.55.02-2.33.0-.99-.03-1.39.46-1.36 1.41.02.66.0 1.33.0 2 0 21.18.0 42.36.0 63.54.0.67.03 1.33.0 2-.03.88.46 1.14 1.23 1.14.78.0 1.55.01 2.33.01 14.2.0 28.4.0 42.6.0 14.42.0 28.84.0 43.27.0.78.0 1.55.0 2.33-.02.66-.01.99-.35.99-1.01.0-.89.01-1.77.01-2.66.0-18.3.0-36.59.0-54.89C960.12 123.9 960.06 120.68 960.14 117.47zM741.25 164.55c18.74 14.07 36.86 27.67 55.52 41.68-1.44.1-2.23.19-3.03.2-11.43.01-22.87-.03-34.3.04-1.91.01-3.31-.55-4.75-1.79-11.91-10.3-23.89-20.53-35.84-30.79-3.12-2.67-6.26-5.31-9.33-8.03-1.06-.95-2.15-1.35-3.58-1.34-7.33.06-14.65.02-21.98.04-2.67.01-2.7.04-2.71 2.83-.01 11.65-.01 23.3-.01 34.95.0.78-.05 1.56.01 2.33.1 1.23-.31 1.79-1.66 1.78-8.1-.04-16.21-.03-24.31.0-1.09.0-1.68-.27-1.59-1.47.06-.77.01-1.55.01-2.33.0-34.4.0-68.79.0-103.19.0-3.66.0-3.67 3.69-3.67 33.19.0 66.38.01 99.58-.01 4.79.0 9.51.41 14.08 1.93 8.53 2.83 13.15 8.83 13.3 17.8.16 9.76.09 19.53.03 29.29-.07 10.7-6.81 17.99-18.12 19.04-7.42.69-14.85.55-22.28.71C743.34 164.56 742.72 164.55 741.25 164.55zM746.06 145.76c2.01.0 3.98-.22 5.91-.75 3.13-.86 4.97-2.88 5.07-6.17.17-5.64.13-11.3.02-16.94-.06-3.26-1.95-5.23-5.04-6.21-2.27-.72-4.59-.7-6.91-.71-9.64-.03-19.29-.01-28.93-.01.0.0.0.0.0.0-10.75.0-21.51-.01-32.26.01-2.66.0-2.68.03-2.68 2.76-.01 8.42.0 16.84.0 25.26.0 2.54-.48 2.77 2.63 2.77C704.6 145.74 725.33 145.74 746.06 145.76z"
			/><path class="st0" d="M1602.98 270.26c0 1.55.0 3.11.0 4.66l-.31-.03-.3.08c-.74 3.44-2.8 5.91-5.63 7.88-2.52 1.75-5.41 2.72-8.32 3.11-5.5.75-11.07.77-16.42-1.13-5.17-1.83-9.07-5.02-10.64-10.51-.18-.63-.27-1.3-.41-1.94-.28-1.23.15-1.92 1.47-1.95.66-.02 1.32-.1 1.99-.13 2.71-.15 2.76-.16 3.57 2.39 1.13 3.6 3.74 5.67 7.12 6.86 4.62 1.62 9.34 1.77 14.06.51 1.82-.49 3.54-1.3 4.91-2.67 2.82-2.81 2.54-6.79-.64-9.18-1.9-1.43-4.12-2.09-6.38-2.64-4.51-1.1-9.03-2.16-13.54-3.26-1.95-.48-3.69-1.42-5.42-2.43-6.69-3.87-6.85-12.66-1.22-17.43 3.08-2.61 6.83-3.61 10.7-4.05 4.54-.53 9.04-.15 13.46 1.2 5.98 1.83 9.83 6.49 9.91 12.2-.75.63-1.68.45-2.54.45-1.21.0-2.55.56-3.59-.07-.93-.56-.75-1.97-1.21-2.94-1.23-2.57-3.28-4.17-5.97-4.89-4.14-1.11-8.33-1.05-12.48.02-1.19.31-2.27.88-3.23 1.66-3.67 2.97-3.05 7.72 1.3 9.58 3.17 1.35 6.56 1.96 9.91 2.68 3.57.76 7.19 1.36 10.57 2.75 4.21 1.74 7.87 4.15 8.78 9.12C1602.67 270.07 1602.84 270.11 1602.98 270.26zM1259.31 270.05c-.43-.1-.85-.24-1.28-.37-1.55-.46-2.31-.01-2.87 1.67-1.66 5.02-5.27 8.14-10.4 9.28-3.15.7-6.36.68-9.54-.22-5.46-1.53-9.04-4.88-10.6-10.39-1.27-4.45-1.58-8.91-.64-13.46 1.36-6.57 5.11-10.92 11.73-12.56 2.95-.73 5.97-.77 8.93-.25 3.76.65 6.8 2.59 8.76 5.98.6 1.04.97 2.43 1.87 3.03 1.14.76 2.53-.34 3.84-.46.87-.08 1.77-.12 2.69-.92-2.29-6.59-6.9-10.63-13.43-12.33-5.81-1.51-11.67-1.24-17.36.76-7.59 2.67-12.39 8.06-14.18 15.85-1.34 5.84-.82 11.65 1.49 17.28 2.62 6.36 7.09 10.56 13.75 12.43 1.26.35 2.92-.03 3.7 1.12.78 1.15-.99 2.37-.45 3.85 1.02.57 2.3.29 3.43.67.88.29 1.69.79 1.64 1.82-.04.84-.74 1.28-1.49 1.62-1.69.76-3.49.53-5.25.56-2.4.03-2.4.0-2.56 2.48-.02.32.05.65.11 1.28 3.51.35 7 .53 10.46-.5 1.41-.42 2.63-1.16 3.58-2.3 1.86-2.23 1.54-4.57-.82-6.27-.93-.67-2.04-.84-3.07-1.22-.43-.16-.88-.34-.72-.88.12-.4.38-.97.68-1.05.85-.22 1.75-.21 2.63-.3 7.84-.78 13.84-4.33 17.37-11.57C1263.16 270.96 1263.16 270.96 1259.31 270.05zM1491.25 280.14c-.89.0-1.98.0-3.06.0-8.88.0-17.76.01-26.63-.01-2.2-.01-2.24-.06-2.26-2.19-.04-3.77-.02-7.54.0-11.31.01-2.31.04-2.35 2.35-2.35 7.77-.02 15.54-.01 23.3-.01.78.0 1.55-.02 2.33.0.77.02 1.28-.19 1.25-1.1-.04-1.11-.01-2.22-.02-3.33.0-.66-.35-.99-1.01-1-.78-.01-1.55-.01-2.33-.01-7.88.0-15.76.01-23.64-.01-2.17-.01-2.21-.06-2.24-2.22-.04-3.22-.03-6.43.0-9.65.02-2.51.04-2.54 2.58-2.55 8.43-.02 16.87-.01 25.3-.01.78.0 1.55-.01 2.33-.01.66-.01 1-.34 1-1 .01-.67.01-1.33.01-2 .01-2.45.27-2.43-2.24-2.43-11.21.01-22.42.02-33.63.0-2.73-.01-2.25.23-2.25 2.42.0 13.98.01 27.95-.01 41.93.0 2.63.16 2.28 2.4 2.28 10.76-.01 21.53.0 32.29.0 5 0 5 0 4.57-4.95C1491.63 280.53 1491.51 280.45 1491.25 280.14zM618.64 238.97c-2.29.04-2.32.04-2.32 2.34-.01 7.98-.03 15.96.01 23.95.01 2.34-.22 4.65-.65 6.94-.71 3.73-2.64 6.51-6.47 7.66-4.35 1.3-8.69 1.42-13.05.02-4.26-1.36-6.63-4.27-7.04-8.67-.29-3.08-.44-6.19-.47-9.29-.06-7.52-.02-15.05-.02-22.94-1.83.0-3.26.02-4.69.0-2.27-.04-2.23-.06-2.22 2.12.04 8.87.05 17.74.05 26.61.0 2.24.35 4.43.83 6.58 1 4.47 3.52 8 7.76 9.77 7.77 3.25 15.74 3.4 23.59.19 4.72-1.93 7.55-5.54 8.59-10.61.52-2.53.63-5.05.64-7.6.02-7.54.01-15.08.01-22.62C623.19 238.89 623.19 238.89 618.64 238.97zM1032.3 269.68c-1.48-.29-2.38-.19-2.94 1.58-1.39 4.37-4.4 7.37-8.75 8.89-3.33 1.17-6.82 1.28-10.18.53-5.93-1.33-10.06-4.72-11.72-10.89-1.48-5.52-1.45-10.93.32-16.33.62-1.91 1.67-3.59 3.08-5.07 4.43-4.62 10.04-5.34 15.96-4.73 5.07.52 8.53 3.46 10.56 8.05.44.99.97 1.51 1.98 1.19 1.68-.53 3.51-.44 5.39-1.36-2.26-6.74-6.92-10.73-13.39-12.46-5.91-1.58-11.87-1.26-17.66.85-7.17 2.61-11.87 7.56-13.72 15.02-1.78 7.17-.98 14.09 2.53 20.61 2.64 4.9 6.68 8.12 12.1 9.67 4.46 1.27 9.01 1.51 13.51.9 6.83-.92 12.27-4.21 15.64-10.48C1037.58 270.88 1037.51 270.72 1032.3 269.68zM837.27 280.14c-6.77-.01-13.54.0-20.31.0-2.66.0-2.75.42-2.75-2.64.01-11.21.01-22.41.01-33.62.0-5.1.0-5.03-5.09-4.96-1.62.02-2.06.49-2.04 2.09.08 7.1.04 14.2.04 21.3.0 6.77-.01 13.54.0 20.3.0 3.07-.44 2.96 2.75 2.96 9.21.0 18.43.0 27.64.0.55.0 1.11.0 1.66-.01.64-.01 1.02-.3 1.02-.98.0-.44.01-.89.01-1.33C840.16 279.83 840.58 280.15 837.27 280.14zM918.29 243.3c0-4.38.0-4.37-4.31-4.34-2.91.02-2.56-.24-2.56 2.76-.01 12.95.0 25.9.0 38.85.0 5.3.0 5.24 5.31 5.04 1.43-.05 1.59-.64 1.58-1.8-.03-7.19-.02-14.39-.02-21.58C918.29 255.92 918.29 249.61 918.29 243.3zM1349.18 235.09c1.59-2.31 1.96-2.45 4.58-1.52 1.56.55 3.06 1.28 4.64 1.77 5.4 1.7 8.92-.61 9.76-6.52-1.92.02-4.04-1.38-5.18 1.64-.41 1.08-1.77 1.19-2.94.79-1.56-.54-3.15-1.02-4.68-1.64-1.81-.73-3.66-.87-5.54-.56-2.76.46-4.97 2.66-5.33 5.21-.08.53-.23 1.11.26 1.54C1345.52 236.46 1348.58 235.96 1349.18 235.09zM736.13 271.42c.14 4.81-1.77 8.85-6.05 11.46-3.01 1.84-6.41 2.5-9.84 2.58-7.43.16-14.86.04-22.29.16-1.76.03-1.65-.89-1.65-2.06.01-12.31.01-24.62.01-36.93.0-2.11.01-4.21.0-6.32.0-.71.06-1.36.99-1.33 8.63.29 17.31-.8 25.9.67 4.39.75 7.74 3.22 9.61 7.35 1.89 4.16.34 9.13-3.64 12.05-.79.58-1.66 1.04-2.51 1.56.74.65 1.64.8 2.44 1.17C733.21 263.69 736 266.79 736.13 271.42zM703.19 256.96c-.02 1.26.65 1.45 1.67 1.44 2.33-.03 4.65-.01 6.98-.01.0-.04.0-.07.0-.11 2.66.0 5.33.19 7.97-.05 2.86-.26 5.41-1.38 6.5-4.35 1.54-4.19-1.03-8.24-5.65-9-5.28-.87-10.61-.32-15.91-.48-1.16-.04-1.56.51-1.55 1.6C703.22 249.65 703.23 253.3 703.19 256.96zM728.91 272.13c-.05-2.99-1.44-5.27-4.22-6.61-1.52-.73-3.1-1.22-4.78-1.24-2.44-.04-4.88-.01-7.32-.01.0-.04.0-.07.0-.11-2.55.0-5.11.04-7.66-.02-1.25-.03-1.79.35-1.76 1.7.07 4.1.09 8.21-.01 12.31-.04 1.7.69 2.04 2.19 2.01 4.44-.07 8.88.01 13.32-.04 2.11-.02 4.21-.37 6.11-1.32C727.51 277.44 728.96 275.16 728.91 272.13zM1381.23 258.28c.73 4.94.29 9.74-1.71 14.31-3.77 8.57-10.89 12.42-19.77 13.63-1.2.16-2.44.02-3.65.02-5.1.17-9.85-1-14.23-3.67-4.97-3.03-8.24-7.4-9.83-12.9-1.68-5.81-1.26-11.67.91-17.28 2.32-6 6.76-10.18 12.73-12.34 8.51-3.08 16.99-2.76 24.97 1.83C1376.91 245.5 1380.18 251.19 1381.23 258.28zM1374.29 263.1c.22-6.9-1.74-12.92-7.89-16.85-5.56-3.55-11.52-3.57-17.5-1.37-5.36 1.97-8.69 5.81-9.93 11.49-.43 1.98-.37 3.96-.6 5.75-.11 5.39 1.1 9.53 3.68 12.6 5.05 6.01 11.67 7.27 18.94 5.81 5.53-1.11 9.58-4.39 11.83-9.66C1373.86 268.4 1374.21 265.73 1374.29 263.1zM511.06 252.31c.13 5.3-3.09 10.4-7.88 12.41-3.74 1.57-7.72 1.81-11.7 1.91-3.65.09-7.31.01-10.97.02-2.79.0-2.77-.35-2.76 2.63.01 4.76-.07 9.53.04 14.29.04 1.63-.48 2.03-2.06 2.05-5.1.06-5.09.13-5.09-4.96.0-6.2.0-12.4.0-18.61.0-6.98-.01-13.95.01-20.93.01-2.1.04-2.14 2.2-2.15 7.31-.02 14.63-.01 21.94-.01 2.8.0 5.51.56 8.1 1.54C507.86 242.39 510.92 246.9 511.06 252.31zM503.18 249.5c-1.53-3.67-4.69-4.91-8.25-5.05-5.19-.2-10.4-.03-15.6-.08-1.11-.01-1.6.33-1.59 1.5.03 4.53.06 9.07-.02 13.6-.02 1.44.66 1.6 1.82 1.58 2.43-.05 4.87-.02 7.3-.02.0-.03.0-.07.0-.1 2.43.0 4.87-.02 7.3.01 1.35.02 2.64-.3 3.91-.67C502.83 258.9 505.1 254.1 503.18 249.5zM1149.58 282.67c.37.8.73 1.6 1.32 2.91-2.36.0-4.35-.1-6.33.03-1.38.09-1.94-.62-2.39-1.7-1.47-3.45-3.03-6.87-4.42-10.36-.62-1.56-1.5-2.14-3.2-2.11-5.87.1-11.75.1-17.63.0-1.73-.03-2.51.56-3.1 2.17-1.24 3.42-2.79 6.73-4.12 10.12-.5 1.27-1.06 2.02-2.61 1.87-1.75-.16-3.52-.04-5.58-.04 2.23-5.13 4.33-9.96 6.43-14.8 4.3-9.92 8.62-19.84 12.88-29.78.57-1.33 1.13-2.27 2.83-2.06 1.85.24 4.09-.67 5.51.37 1.26.93 1.67 3.02 2.42 4.61C1137.6 256.83 1143.59 269.75 1149.58 282.67zM1134.48 266.23c-3.02-7.29-5.97-14.39-9.13-22.01-2.06 7.91-5.67 14.69-8.43 22.01C1122.86 266.23 1128.57 266.23 1134.48 266.23z"/></g></g></svg>