<svg xmlns="http://www.w3.org/2000/svg" id="Layer_1" x="0" y="0" version="1.1" viewBox="0 0 2077.39 434.84" xml:space="preserve">
  <defs/>
  <style>.st0{fill:#FFF}</style>
  <path d="M1934.05 195.65c-18.75-.58-27.89-9.24-29.01-29.4-.75-13.43-1.35-26.99 1.05-40.43 2.09-11.7 8.3-18.71 19.83-20.94 4.52-.87 9.08-1.72 13.78-1.71 34.02.11 68.04.04 102.06.14 5.9.02 11.66 1.22 17.28 3.18 6.48 2.25 10.69 6.7 12.94 12.95 2.15 5.99 2.88 12.26 2.94 18.66.03 3.05-1.42 4.01-3.96 4.59-8.4 1.93-16.79 3.91-25.16 5.98-2.72.67-3.96.06-3.84-2.95.15-3.8-.05-7.61.08-11.41.08-2.43-.8-3.42-3.28-3.31-3.16.14-6.34.02-9.51.02-28.74 0-57.48-.01-86.21.01-5.54 0-5.58.05-5.6 5.38-.04 7.82-.05 15.64-.01 23.45.03 5.46.08 5.51 5.53 5.52 31.48.02 62.97.05 94.45-.03 5.94-.02 11.79.43 17.59 1.64 10.29 2.16 17.7 7.4 20.3 18.29.43 1.8-.18 4.34 2.09 5.57v2.54c-1.45.68-1.29 1.99-1.29 3.24l.03 34.08c0 1.26-.13 2.56 1.25 3.29v3.81c-2.11 1.06-1.61 3.39-1.98 5-2.83 12.41-11.62 17.42-23.11 19.16-6.06.92-12.18 1.2-18.32 1.19-31.92-.07-63.83-.02-95.75-.05-7.19 0-14.29-.67-21.29-2.52-8.05-2.13-13.33-7.12-15.65-15-2.03-6.9-3.16-13.98-2.95-21.24.07-2.41.48-3.87 3.27-4.37 8.71-1.54 17.41-3.21 26.03-5.17 3.03-.69 3.74.11 3.61 2.93-.15 3.16-.05 6.34-.02 9.51.04 5.53.05 5.57 5.36 5.59 8.67.03 17.33.01 26 .01 25.36 0 50.73.01 76.09-.01 5.54 0 5.58-.05 5.59-5.37.02-10.36 0-20.71-.01-31.07-1.36-2.95-4.04-1.68-6.12-1.69-32.69-.08-65.38-.07-98.07-.02-1.99.03-4.22-.74-6.01.96zM1560.91 362.19c-.18-3.16.54-5.4 4.48-4.9 1.2.15 2.55-.11 3.7-.53 1.01-.38 1.84-2.13.87-2.38-3.89-1.01-4.57-3.48-4.2-6.91.01-.13-1.92-.41-2.91-.72-7.68-2.39-12.31-7.65-14.62-15.27-2.28-7.5-2.44-14.98.38-22.25 3.46-8.92 10.44-13.57 19.82-14.35 8.89-.74 16.21 2.13 20.59 10.45 2.2 4.19 1.63 4.95-2.79 5.54-2.16.29-2.39-1.01-3.14-2.22-4.52-7.25-8.91-9.19-16.9-7.54-6.26 1.3-10.13 6.01-11.8 13.25-1.12 4.89-.85 9.56.14 14.36 1.48 7.18 6.48 11.99 13.69 12.87 6.67.82 12.09-2.27 15.33-8.74.71-1.42.58-3.56 2.8-3.73 1.73-.13 3.44.5 4.56 1.77.97 1.09-.07 2.38-.54 3.49-3.01 7.13-8.11 11.68-15.96 12.73-1.42.19-3.13-.2-3.41 1.91-.26 1.92 1.56 1.54 2.48 2.18 3.9 2.74 3.76 6.34-.07 9.18-1.15.85-3.19-.3-3.6 1.8-2.98.01-5.94.01-8.9.01zM783.46 103.14c19.66 0 39.32.01 58.97-.01 6.98-.01 13.83.65 20.63 2.41 10.57 2.75 15.77 10.1 17.49 20.18.85 4.95 1.46 9.99 1.43 15.1-.12 28.54-.11 57.07-.01 85.61.02 4.9-.47 9.8-1.51 14.45-3.38 15.07-9.68 18.3-22.7 21.01-5.55 1.16-11.31 1.3-17.04 1.29-38.47-.06-76.94-.07-115.41.01-5.73.01-11.5-.18-17.03-1.34-14.24-3-20.31-7.43-23-25.11-.66-4.36-.73-8.85-.74-13.28-.06-27.27-.03-54.54-.04-81.8 0-6.35.56-12.62 2.08-18.81 2.08-8.46 7.01-14.25 15.43-16.84 5.04-1.55 10.2-2.66 15.5-2.67 21.98-.05 43.96-.02 65.95-.02v-.18zm-1.12 129.73c18.81 0 37.62.01 56.43-.01 5.55-.01 5.61-.05 5.61-5.38.02-30.22.02-60.45 0-90.67 0-5.38-.08-5.43-5.61-5.43-37.2-.01-74.4.05-111.59-.1-4.06-.02-5.35.95-5.32 5.19.18 30.43.19 60.87 0 91.3-.03 4.26 1.28 5.22 5.32 5.18 18.39-.19 36.78-.08 55.16-.08zM1115.63 213.15c-.1-9.52-.77-17.92-.88-26.32-.34-26.42-.1-52.85-.2-79.28-.01-3.14.69-4.57 4.18-4.49 8.45.2 16.92.2 25.37 0 3.44-.08 4.19 1.23 4.19 4.43-.09 50.32-.09 100.64 0 150.95.01 3.41-.73 5.29-4.49 4.7-.21-.03-.43-.03-.63 0-13.77 1.96-24.37-2.59-35.11-12.05-34.39-30.28-69.96-59.22-105.03-88.73-3.48-2.93-6.64-6.25-10.21-9.63-1.4 6.48.83 12.18.83 18-.02 29.18-.07 58.35.09 87.53.02 3.82-.81 5.15-4.85 4.98-8.02-.34-16.08-.37-24.09.01-4.45.21-5.18-1.54-5.14-5.45.17-17.12.07-34.25.07-51.37 0-32.56 0-65.12.02-97.68 0-5.55.05-5.62 5.42-5.61 6.76.02 14.11-1.48 20.1.71 5.98 2.18 10.62 8.08 15.8 12.41 31.6 26.41 63.2 52.8 94.74 79.28 6.42 5.41 12.57 11.15 19.82 17.61zM1821.74 175.58c-.39 16.82.62 37.96-.46 59.1-.2 3.85-1.23 7.48-2.3 11.1-3.13 10.61-11.56 14.51-21.4 16.15-5.19.86-10.48 1.26-15.79 1.25-33.41-.06-66.82-.06-100.22 0-5.52.01-11.06-.22-16.41-1.3-14.91-3.02-20.22-7.93-23.01-23.62-.81-4.55-.93-9.26-.94-13.9-.07-38.27-.05-76.54-.02-114.81.01-7.18-.64-6.36 6.52-6.39 7.82-.03 15.65-.06 23.47 0 7.95.06 7.23-1.02 7.24 6.96.02 37.85.01 75.7.01 113.54 0 1.48.19 2.99-.03 4.43-.61 4.06 1.22 4.9 4.99 4.87 17.55-.18 35.1-.08 52.65-.08 13.95 0 27.91.03 41.86-.01 7.29-.02 6.49.8 6.5-6.33.02-38.91.01-77.81.02-116.72 0-6.92-1.17-6.7 6.87-6.69 8.25.02 16.49-.02 24.74 0 5.68.02 5.71.05 5.72 5.97 0 20.72-.01 41.44-.01 66.48zM454.32 262.92c-.02-53.18-.03-106.36-.05-159.53 10.57-.09 21.14.06 31.69-.37 4.64-.19 5.03 1.88 5 5.61-.14 17.97-.08 35.95-.04 53.92 0 2.01-.43 4.1.68 6.57 12.35-9.29 24.46-18.39 36.57-27.49 15.87-11.92 31.74-23.83 47.6-35.77 2.03-1.53 3.98-2.81 6.79-2.79 16.27.12 32.54.06 49.39 1.09-34.72 24.69-69.44 49.38-104.49 74.3 39.59 28.14 78.58 55.87 117.58 83.59l-.24 1.09h-12.89c-13.32 0-26.65-.13-39.96.08-3.85.06-6.79-1.09-9.83-3.34-28.84-21.36-57.77-42.6-86.69-63.86-1.15-.85-2.44-1.51-4.24-2.61-.12 2.5-.29 4.5-.29 6.5-.02 19.24 0 38.49-.02 57.73-.01 5.45-.05 5.51-5.5 5.5-10.35-.04-20.7-.15-31.06-.22zM1417.34 263.14c-13.58 0-26.04-.1-38.49.07-2.88.04-4.08-1.36-5.26-3.55-5.02-9.26-10.22-18.41-15.16-27.7-1.54-2.89-3.26-4.17-6.81-4.15-30.65.18-61.3.17-91.96.01-3.76-.02-5.57 1.29-7.2 4.61-4.44 9.06-9.35 17.89-14.11 26.8-1.06 1.99-1.82 4.04-4.94 3.99-11.14-.2-22.28-.08-34.27-.08 6.19-11.1 11.95-21.58 17.84-31.98 23.14-40.85 46.39-81.64 69.38-122.58 2.26-4.03 4.59-5.76 9.25-5.55 8.23.38 16.49.28 24.73.03 3.8-.11 5.9 1.04 7.89 4.53 25.95 45.57 52.11 91.01 78.22 136.49 3.45 6.01 6.87 12.03 10.89 19.06zM1306.6 134.66c-.87 1.14-1.6 1.88-2.09 2.77-10.62 19.37-21.15 38.79-31.87 58.11-1.81 3.27-1.02 3.99 2.32 3.98 14.15-.06 28.31-.02 42.46-.03 6.55 0 13.1-.04 19.65.01 2.5.02 3.74-.48 2.17-3.21-1.58-2.73-2.96-5.57-4.44-8.36-9.35-17.65-18.69-35.3-28.2-53.27zM1484.5 131.33c-22.83.02-45.66-.05-68.48.13-3.77.03-5.25-.76-5.01-4.84.37-6.32.31-12.69.02-19.01-.17-3.69 1.15-4.58 4.64-4.54 14.58.17 29.17.08 43.75.08 42.91 0 85.82-.03 128.72.02 8.42.01 7.13-1.12 7.23 7.49.06 5.28-.24 10.58.09 15.85.24 3.89-.92 5.01-4.89 4.97-20.5-.21-41-.13-61.51-.07-8.17.02-7.25-1.13-7.26 7.56-.03 39.31-.01 78.63-.02 117.94 0 6.22-.02 6.26-5.97 6.23-9.93-.04-19.86-.14-29.79-.22 0-40.66-.02-81.32.03-121.97 0-2.25-.74-4.66.79-6.73 3.1-4.17-.73-2.6-2.34-2.89zM815.27 319.39c7.4 4.42 9.78 8.71 8.54 15.17-1.25 6.5-5.2 10.13-11.78 11.45-7.98 1.6-15.97.51-23.95.87-3.06.14-2.49-2.19-2.49-3.98-.03-9.7-.01-19.4-.01-29.1 0-4.64.13-9.28-.05-13.92-.11-2.79.37-4.33 3.69-4.18 5.89.27 11.8.18 17.71.23 6.14.06 11.29 1.97 13.68 8.13 2.37 6.13.33 11.11-5.34 15.33zm-14.12 21.16c2.74 0 5.53.3 8.22-.07 4.41-.61 7.4-3.94 7.73-7.98.33-4.14-2.08-7.13-6.64-8.76-3.11-1.11-6.26-.73-9.4-.75-9-.08-9-.03-9 8.91 0 8.77 0 8.77 9.09 8.65zm.14-23.58c2.51-.13 5.05-.07 7.53-.42 3.86-.54 5.86-2.85 5.86-6.85 0-3.77-1.21-6.39-5.29-7.34-3.74-.88-7.49-.79-11.26-.81-6.85-.03-6.04-.33-6.08 6.11-.04 9.25-.03 9.25 9.24 9.31zM1757.92 320.64c-.04 10.89-3.3 19.52-12.96 24.16-13.4 6.44-31.29 1.49-35.06-17.04-1.23-6.07-.92-12.19 1.37-18.02 4.17-10.66 13.93-16.23 25.77-14.89 10.47 1.19 18.74 9.3 20.46 20.19.32 2.08.32 4.21.42 5.6zm-41.59 1.04c.14 1.53.18 3.87.61 6.13 1.46 7.7 7.45 13.09 15.13 13.81 7.74.72 14.65-3.41 17.35-10.86 2.62-7.22 2.43-14.55-1.1-21.44-3.2-6.24-8.77-8.94-15.67-8.49-6.81.44-11.87 3.53-14.56 10.18-1.31 3.24-1.44 6.54-1.76 10.67zM1878.15 321.59c0-7.39.09-14.78-.05-22.16-.05-2.65.64-3.76 3.51-3.72 9.92.14 19.84.07 29.76.04 2.01 0 3.65-.08 3.66 2.85.01 2.8-1.38 2.99-3.52 2.97-7.18-.06-14.36.14-21.53-.09-3.61-.12-5.33.56-5.19 4.76.46 13.34-1.68 10.78 10.98 11.03 4.43.09 8.87.05 13.3 0 2.24-.02 4.21-.12 4.11 3.15-.09 3.02-2.02 2.65-3.9 2.65-6.54.01-13.09.13-19.63-.05-3.32-.09-5.18.57-4.84 4.46.36 4.19-1.33 9.69.76 12.28 2.24 2.76 7.95.74 12.13.87 5.06.15 10.13.1 15.2.01 2.2-.04 3.57.29 3.5 3.02-.06 2.38-.69 3.32-3.26 3.28-10.55-.13-21.11-.14-31.66.01-3.03.04-3.41-1.37-3.38-3.84.12-7.17.05-14.35.05-21.52zM2055.13 347.35c-3.84-.02-7.6-.41-11.05-2.25-4.71-2.51-7.92-6.16-8.79-11.63-.24-1.52-.91-3.04 1.45-3.18 1.71-.1 4.24-1.7 4.79 1.12.82 4.16 3.02 6.9 6.76 8.46 3.98 1.66 8.12 1.98 12.37 1.02 4.97-1.12 7.59-3.7 7.86-7.67.33-4.88-2.99-6.66-6.73-7.84-5.41-1.72-11.01-2.85-16.34-4.76-5.92-2.13-8.8-6.46-8.76-11.85.04-5.62 3.44-10.27 9.1-12.41.78-.3 1.59-.53 2.4-.75 6.14-1.69 12.1-1.13 17.77 1.7 3.32 1.66 5.71 4.28 6.83 7.92.51 1.67 2.2 3.91-.24 4.79-1.96.71-4.55 1.6-6.07-2.12-2.9-7.09-14.35-9.53-20.37-4.84-4.33 3.37-3.74 8.82 1.36 11.08 2.47 1.09 5.18 1.67 7.8 2.41 2.83.8 5.73 1.41 8.54 2.29 8.42 2.64 11.93 7.47 11.16 15.18-.68 6.76-6.57 12.23-14.15 13.05-1.88.2-3.79.19-5.69.28zM656.28 314.31c0-5.08.1-10.15-.04-15.22-.07-2.44.74-3.41 3.23-3.38 2.42.02 4 .28 3.91 3.38-.34 11.4.58 22.84-.86 34.21-.13 1.04-.3 2.1-.67 3.07-2.62 6.8-8.08 12.09-22.54 10.81-8.4-.74-13.97-5.15-15.31-13.31-1.93-11.75-.46-23.64-.91-35.46-.1-2.5 1.29-2.68 3.18-2.66 2 .02 3.76-.12 3.71 2.83-.13 7.82-.06 15.65-.05 23.47 0 2.11-.04 4.24.12 6.34.76 10.02 5.48 13.9 15.4 12.75 6.97-.81 10.22-3.93 10.64-10.97.32-5.27.06-10.57.06-15.85.04-.01.09-.01.13-.01zM1431.6 346.23c-7.05 1.12-7.05 1.12-9.35-4.67-4.1-10.32-4.1-10.32-14.16-10.34-11.28-.01-11.33-.03-15.08 10.73-1.02 2.92-1.79 5.55-5.88 5.03-2.23-.29-3.1-.75-2.22-3.02 5.91-15.29 11.85-30.56 17.66-45.89 1.06-2.8 3.17-2.15 5.19-2.35 2.89-.28 3.97 1.33 4.94 3.76 4.74 11.91 9.65 23.74 14.48 35.61 1.5 3.68 2.94 7.38 4.42 11.14zm-15.72-20.74c-2.9-7.82-5.53-14.93-8.57-23.13-2.56 7.15-4.65 13.02-6.76 18.88-.14.39-.38.75-.53 1.15-.72 1.87-.76 3.2 1.93 3.13 4.38-.12 8.77-.03 13.93-.03zM1248.13 347.27c-11.72.32-20.6-5.48-23.07-22.07-1.86-12.52 2.75-25.91 17.99-29.89 10.09-2.63 20.51 1.69 24.52 10.6.5 1.12 3.11 3.07.27 4.02-1.95.65-4.97 2.74-6.45-1.02-2.81-7.14-8.44-8.84-15.34-8.01-7.14.86-11.78 5.37-13.28 13.19-.95 4.99-.96 10.07.22 15.06 1.77 7.51 6.55 11.74 13.94 12.47 6.68.66 11.88-2.24 14.91-9.19 1.29-2.96 2.46-4.11 5.5-2.75 3.27 1.46 1.91 3.56.91 5.65-4.1 8.58-10.93 12.47-20.12 11.94zM464.23 321.11c0-7.17.14-14.35-.06-21.51-.09-3.11.97-3.96 3.98-3.87 7.16.22 14.34-.19 21.5.41 8.28.7 12.88 5.27 13.18 13.15.35 9.21-4.02 15.06-12.45 15.97-5.01.54-10.12.65-15.16.42-3.74-.17-4.67 1.23-4.46 4.66.25 3.99.09 8.01.05 12.02-.02 2.18.76 4.6-3.14 4.65-3.65.04-3.47-1.96-3.46-4.38.04-7.17.01-14.35.02-21.52zm16.31-19.57c-9.71 0-9.71 0-9.71 9.97 0 2.1.02 4.2.03 6.3.01 1.54.74 2.28 2.31 2.21 5.43-.24 10.91.61 16.28-.93 4.5-1.29 6.81-4.1 6.76-8.53-.04-4.38-2.48-7.36-6.9-8.49-2.89-.72-5.84-.45-8.77-.53zM944.14 321.29c0-7.4.14-14.8-.07-22.19-.09-3.04 1.27-3.42 3.77-3.41 2.6.01 3.75.7 3.72 3.59-.14 11.83-.09 23.67-.04 35.51.02 6.3-1.03 5.84 5.6 5.88 5.28.03 10.57.14 15.85-.05 2.69-.1 3.14 1.13 3.16 3.4.02 2.2-.84 2.93-2.98 2.91-8.66-.07-17.33-.13-26 .02-2.75.05-3.07-1.25-3.04-3.47.07-7.39.03-14.79.03-22.19zM1096.81 320.7c0-6.98.04-13.96-.02-20.93-.02-2.29-.07-4.11 3.18-4.07 2.82.03 3.59 1.02 3.57 3.73-.11 14.59-.09 29.18-.02 43.77.01 2.57-.58 3.79-3.51 3.79-3.22 0-3.24-1.78-3.22-4.07.04-7.42.01-14.82.02-22.22z" class="st0"/>
  <path d="M1484.5 131.33c1.6.29 5.44-1.28 2.36 2.88-1.53 2.07-.79 4.49-.79 6.73-.05 40.66-.03 81.32-.03 121.97-2.65-1.59-1.21-4.15-1.21-6.16-.12-39.49-.09-78.98-.1-118.47 0-2.31-.15-4.63-.23-6.95zM1934.05 195.65c1.79-1.7 4.02-.93 6.04-.93 32.69-.05 65.38-.06 98.07.02 2.08.01 4.75-1.26 6.12 1.69-12.25-.09-24.49-.23-36.74-.25-20.7-.04-41.41.01-62.11-.04-3.8-.02-7.59-.32-11.38-.49zM1738.1 292.47c-1.29.04-2.44-.3-3.61-.9-2.94-1.51-5.89-3.62-8.64.56-.53.81-2.45.84-3.4-.26-.73-.86-.26-1.98.17-2.94 1.51-3.42 5.2-5.2 8.88-3.76 3.65 1.42 6.91 3.77 10.54-.37.94-1.07 3.27-.3 2.79 2.35-.58 3.24-3.25 5.4-6.73 5.32z" class="st0"/>
  <g>
    <path d="M188.69 0c.8 0 1.11.31 2.05 1.01.94.7 52.44 30.53 76.47 44.41 3.5 2.02 3.58 2.08.7 5-11.83 11.97-23.77 23.83-35.51 35.88-2.12 2.18-3.73 1.95-6.02.61-11.19-6.53-22.52-12.83-33.63-19.48-3.01-1.8-5.18-1.67-8.16.05-41.53 24.09-83.13 48.07-124.76 71.99-2.39 1.38-3.49 2.77-3.48 5.73.09 48.5.09 97-.12 145.49-.01 3.45 1.68 4.29 4.01 5.62 28.33 16.28 56.62 32.65 84.91 49 13.22 7.64 26.48 15.2 39.57 23.04 2.85 1.71 4.98 1.8 7.74.16 10.42-6.17 20.96-12.13 31.39-18.29 2.31-1.36 3.86-1.57 6 .61 12.04 12.22 24.27 24.26 36.42 36.37l.03.03c1.19 1.19.85 3.21-.61 4.05-10.35 5.93-20.56 11.76-30.74 17.63-14.24 8.2-28.52 16.34-42.64 24.75-2.71 1.62-4.6 1.48-7.16-.01-31.44-18.24-62.93-36.39-94.41-54.56-29.31-16.92-58.62-33.86-87.98-50.69-1.86-1.06-2.72-2.13-2.62-4.23.12-2.49.02-5 .02-7.5-.03-67.14 0-134.3-.16-201.47-.01-4.49 1.17-7.12 5.22-9.43 34.92-19.91 69.71-40.06 104.53-60.14C134.22 31.52 185.77 2.12 186.64.99c.49-.63 1.25-.99 2.05-.99zM298.16 307.36c6.48-3.79 12.84-7.68 19.38-11.23 2.68-1.45 3.71-3.09 3.7-6.19-.1-48.15-.1-96.3.02-144.45.01-3.15-1.12-4.82-3.71-6.2-4.84-2.56-9.54-5.39-14.36-7.98-2.35-1.27-2.67-2.42-.67-4.4 12.31-12.18 24.55-24.42 36.79-36.67 1.47-1.47 2.63-1.83 4.68-.62 10.15 6.01 20.41 11.82 30.68 17.61 1.98 1.11 2.77 2.47 2.72 4.78-.15 6.66-.05 13.33-.05 19.99 0 63.14-.04 126.29.09 189.43.01 4.03-1.23 6.17-4.76 8.08-10.35 5.6-20.48 11.6-30.65 17.52-1.94 1.13-3.38 1.49-5.23-.39-12.49-12.7-25.09-25.28-37.64-37.92-.34-.33-.58-.78-.99-1.36z" class="st0"/>
    <path d="M377.75 403.52c-.53-.62-1.03-1.29-1.61-1.87-12.88-12.87-182-182.14-177.68-186.47 4.32-4.34 164.92-166.36 176.12-178.1-.64-.17-2.14.78-3.67 1.28-14.19 4.67-101.65 33.53-107.6 35.48-2.33.77-4.89 1.28-6.61 3.16-5.57 6.09-75.33 75.31-80.54 80.99 0 0-4.3 3.76-7.13 6.23 0-3.37.15-28.54.16-31.19.02-5.17 0-5.21-4.99-5.22-12.93-.04-25.85-.1-38.78-.01-3.93.03-9.1-1.71-11.5.81-2.78 2.91-.71 8.17-.85 12.4.01 5.67-.09 162.28-.08 164.43.02 5.95-.8 5.74 5.49 5.73 12.76-.02 25.52.03 38.28-.06 3.94-.03 9.22 1.73 11.49-.69 2.67-2.85.75-8.17.76-12.42.32-4.67-.24-19.68.59-22.64 4.33 3.01 67.21 66.37 75.55 74.69 4.77 4.95 8.73 10.78 15.67 13.24 21.3 7.53 42.56 15.17 63.85 22.75 10.24 3.65 20.44 7.44 30.77 10.82 7.21 2.36 14.01 5.93 21.54 7.34.21.38.51.76.93.4.38-.31.09-.74-.16-1.08z" class="st0"/>
  </g>
</svg>
