<svg xmlns="http://www.w3.org/2000/svg" id="Layer_1" x="0" y="0" version="1.1" viewBox="0 0 1280 686" xml:space="preserve">
  <defs/>
  <style>.st0{fill:#FFF}</style>
  <path d="M1281 586c-1.09-.57-.99-1.6-.99-2.59-.01-8.95-.02-17.9-.02-26.85 0-.99-.13-2.02 1.01-2.56v32z" class="st0"/>
  <path d="M1168.04 555.76c-14.78-.46-21.98-7.28-22.86-23.16-.59-10.59-1.06-21.27.83-31.86 1.64-9.22 6.54-14.74 15.63-16.5 3.56-.69 7.15-1.36 10.86-1.35 26.81.08 53.62.03 80.42.11 4.65.01 9.19.97 13.62 2.5 5.11 1.77 8.43 5.28 10.19 10.21 1.69 4.72 2.27 9.66 2.32 14.7.02 2.41-1.12 3.16-3.12 3.62-6.62 1.52-13.23 3.08-19.83 4.71-2.15.53-3.12.05-3.03-2.33.12-2.99-.04-6 .06-8.99.07-1.91-.63-2.7-2.58-2.61-2.49.11-4.99.02-7.49.02-22.65 0-45.29-.01-67.94 0-4.37 0-4.4.04-4.42 4.24-.03 6.16-.04 12.32-.01 18.48.02 4.3.06 4.34 4.36 4.35 24.81.01 49.62.04 74.43-.02 4.68-.01 9.29.34 13.86 1.29 8.11 1.7 13.95 5.83 16 14.42.34 1.42-.14 3.42 1.65 4.39v2c-1.14.53-1.01 1.57-1.01 2.56.01 8.95.02 17.9.02 26.85 0 .99-.1 2.02.99 2.59v3c-1.66.83-1.27 2.67-1.56 3.94-2.23 9.78-9.16 13.73-18.21 15.1-4.78.72-9.6.94-14.44.93-25.15-.05-50.3-.02-75.45-.04-5.66 0-11.26-.52-16.77-1.98-6.34-1.68-10.51-5.61-12.33-11.82-1.6-5.44-2.49-11.02-2.32-16.74.05-1.9.38-3.05 2.58-3.44 6.86-1.22 13.72-2.53 20.51-4.07 2.39-.54 2.95.09 2.84 2.31-.12 2.49-.04 5-.02 7.49.03 4.36.04 4.39 4.23 4.4 6.83.03 13.66.01 20.49.01 19.99 0 39.97.01 59.96-.01 4.36 0 4.4-.04 4.41-4.23.02-8.16 0-16.32 0-24.48-1.08-2.32-3.18-1.33-4.82-1.33-25.76-.07-51.52-.06-77.28-.02-1.6.03-3.35-.58-4.77.76zM874 687c-.14-2.49.42-4.25 3.53-3.86.95.12 2.01-.08 2.91-.42.8-.3 1.45-1.68.68-1.88-3.07-.79-3.6-2.74-3.31-5.44.01-.1-1.51-.32-2.3-.57-6.05-1.89-9.7-6.03-11.52-12.03-1.8-5.91-1.93-11.8.3-17.54 2.73-7.03 8.23-10.69 15.62-11.31 7-.59 12.77 1.68 16.22 8.24 1.74 3.3 1.28 3.9-2.2 4.37-1.7.23-1.88-.8-2.47-1.75-3.56-5.72-7.02-7.25-13.32-5.94-4.94 1.02-7.99 4.74-9.3 10.44-.89 3.85-.67 7.53.11 11.32 1.17 5.66 5.1 9.45 10.79 10.14 5.26.64 9.53-1.79 12.08-6.89.56-1.12.46-2.81 2.21-2.94 1.37-.1 2.71.4 3.59 1.4.76.86-.05 1.88-.42 2.75-2.37 5.62-6.39 9.2-12.58 10.03-1.12.15-2.46-.15-2.69 1.5-.21 1.52 1.23 1.21 1.95 1.72 3.08 2.16 2.97 5-.05 7.24-.91.67-2.52-.23-2.84 1.42H874zM1.99 608.77c-.33.08-.66.15-.99.23V483a.97.97 0 01.96.06l.03 125.71zM261.36 482.87c15.49 0 30.98.01 46.47-.01 5.5-.01 10.9.51 16.26 1.9 8.33 2.16 12.43 7.96 13.78 15.9.67 3.9 1.15 7.87 1.13 11.9-.09 22.49-.08 44.97-.01 67.46.01 3.86-.37 7.72-1.19 11.38-2.67 11.87-7.63 14.42-17.89 16.56-4.37.91-8.91 1.02-13.43 1.01-30.32-.05-60.63-.05-90.95 0-4.52.01-9.06-.14-13.42-1.06-11.22-2.36-16.01-5.85-18.13-19.79-.52-3.44-.58-6.97-.58-10.46-.05-21.49-.02-42.98-.03-64.46 0-5 .44-9.95 1.64-14.82 1.64-6.66 5.53-11.23 12.16-13.27 3.98-1.22 8.04-2.1 12.21-2.11 17.32-.04 34.64-.02 51.97-.02.01-.03.01-.07.01-.11zm-.88 102.23c14.82 0 29.65.01 44.47-.01 4.37-.01 4.42-.04 4.42-4.24.02-23.82.02-47.63 0-71.45 0-4.24-.06-4.28-4.42-4.28-29.31-.01-58.62.04-87.94-.08-3.2-.01-4.21.75-4.19 4.09.15 23.98.15 47.97 0 71.95-.02 3.36 1.01 4.12 4.19 4.08 14.49-.16 28.98-.06 43.47-.06zM523.12 569.55c-.08-7.5-.61-14.12-.7-20.74-.27-20.82-.08-41.65-.16-62.47-.01-2.47.55-3.6 3.29-3.54 6.66.16 13.33.16 19.99 0 2.71-.06 3.3.97 3.3 3.49-.07 39.65-.07 79.3 0 118.96 0 2.68-.57 4.17-3.54 3.7-.16-.03-.34-.02-.5 0-10.85 1.55-19.2-2.04-27.67-9.5-27.1-23.86-55.13-46.67-82.76-69.92-2.74-2.31-5.24-4.92-8.05-7.59-1.1 5.11.65 9.6.65 14.18-.01 22.99-.06 45.98.07 68.97.02 3.01-.64 4.06-3.82 3.92-6.32-.27-12.67-.3-18.99.01-3.51.17-4.08-1.21-4.05-4.29.14-13.49.06-26.99.06-40.48 0-25.66 0-51.31.02-76.97 0-4.37.04-4.43 4.27-4.42 5.32.01 11.12-1.17 15.84.56 4.71 1.72 8.37 6.37 12.45 9.78 24.9 20.81 49.81 41.61 74.66 62.47 5.07 4.27 9.92 8.8 15.64 13.88zM1079.54 539.95c-.3 13.25.48 29.92-.36 46.57-.15 3.03-.97 5.89-1.81 8.74-2.46 8.36-9.11 11.43-16.87 12.73-4.09.68-8.26.99-12.44.99-26.33-.05-52.65-.05-78.98 0-4.35.01-8.71-.17-12.93-1.03-11.75-2.38-15.93-6.25-18.14-18.61-.64-3.58-.74-7.3-.74-10.95-.05-30.16-.04-60.32-.01-90.47 0-5.66-.5-5.01 5.14-5.03 6.16-.03 12.33-.04 18.49 0 6.27.04 5.7-.81 5.7 5.49.01 29.82.01 59.65.01 89.47 0 1.17.15 2.35-.03 3.49-.48 3.2.96 3.87 3.93 3.83 13.83-.14 27.66-.06 41.49-.06 11 0 21.99.02 32.99-.01 5.74-.02 5.12.63 5.12-4.99.02-30.66 0-61.32.02-91.97 0-5.45-.92-5.28 5.41-5.27 6.5.01 13-.02 19.49 0 4.48.01 4.5.04 4.51 4.7.02 16.32.01 32.65.01 52.38z" class="st0"/>
  <path d="M1.99 608.77c-.01-41.9-.03-83.81-.04-125.71 8.33-.07 16.66.05 24.98-.29 3.66-.15 3.96 1.48 3.94 4.42-.11 14.16-.06 28.33-.03 42.49 0 1.58-.34 3.23.54 5.18L60.2 513.2c12.5-9.39 25.01-18.78 37.51-28.18 1.6-1.2 3.14-2.22 5.35-2.2 12.82.09 25.64.05 38.92.86-27.36 19.46-54.72 38.91-82.34 58.55 31.2 22.18 61.92 44.02 92.65 65.87-.06.29-.13.57-.19.86h-10.15c-10.5 0-21-.1-31.49.07-3.03.05-5.35-.86-7.74-2.63-22.73-16.83-45.53-33.57-68.31-50.32-.91-.67-1.92-1.19-3.34-2.06-.09 1.97-.23 3.54-.23 5.12-.02 15.16 0 30.33-.02 45.49 0 4.3-.04 4.34-4.33 4.33-8.18-.04-16.34-.13-24.5-.19zM760.87 608.95c-10.7 0-20.52-.08-30.33.06-2.27.03-3.21-1.08-4.14-2.8-3.95-7.29-8.05-14.51-11.95-21.83-1.21-2.28-2.57-3.29-5.36-3.27-24.15.14-48.31.13-72.46.01-2.97-.01-4.39 1.01-5.67 3.63-3.5 7.14-7.37 14.1-11.12 21.12-.84 1.57-1.43 3.19-3.9 3.14-8.78-.15-17.56-.06-27-.06 4.88-8.75 9.42-17 14.06-25.2 18.24-32.19 36.56-64.33 54.67-96.59 1.78-3.17 3.62-4.54 7.29-4.37 6.48.3 12.99.22 19.48.02 3-.09 4.65.82 6.22 3.57 20.45 35.91 41.07 71.72 61.64 107.56 2.7 4.73 5.4 9.46 8.57 15.01zM673.6 507.71c-.68.9-1.26 1.48-1.65 2.18-8.37 15.27-16.67 30.57-25.12 45.79-1.43 2.57-.8 3.14 1.83 3.13 11.15-.05 22.31-.02 33.46-.02 5.16 0 10.32-.03 15.48.01 1.97.02 2.95-.38 1.71-2.53-1.24-2.15-2.33-4.39-3.5-6.59-7.35-13.91-14.71-27.81-22.21-41.97zM813.79 505.08c-17.99.01-35.98-.04-53.96.1-2.97.02-4.13-.6-3.95-3.82.29-4.98.24-10 .01-14.98-.13-2.9.9-3.61 3.65-3.57 11.49.13 22.98.06 34.48.06 33.81 0 67.62-.02 101.44.01 6.64.01 5.62-.89 5.7 5.9.05 4.16-.19 8.34.07 12.49.19 3.06-.72 3.95-3.85 3.92-16.15-.16-32.31-.1-48.47-.06-6.44.02-5.71-.89-5.72 5.96-.02 30.98-.01 61.96-.01 92.94 0 4.9-.01 4.93-4.71 4.91-7.82-.03-15.65-.11-23.47-.17 0-32.04-.01-64.08.02-96.12 0-1.77-.58-3.67.63-5.3 2.43-3.28-.59-2.04-1.86-2.27zM286.42 653.28c5.83 3.48 7.71 6.86 6.73 11.95-.98 5.12-4.1 7.98-9.29 9.02-6.29 1.26-12.59.4-18.87.68-2.41.11-1.96-1.73-1.96-3.14-.02-7.64-.01-15.29-.01-22.93 0-3.66.1-7.32-.04-10.97-.08-2.19.29-3.41 2.91-3.29 4.64.21 9.3.14 13.95.18 4.84.05 8.89 1.55 10.78 6.41 1.88 4.83.27 8.76-4.2 12.09zm-11.12 16.67c2.16 0 4.36.24 6.48-.05 3.47-.48 5.83-3.11 6.09-6.29.26-3.26-1.64-5.62-5.23-6.9-2.45-.88-4.94-.57-7.41-.59-7.09-.06-7.09-.03-7.09 7.02 0 6.9 0 6.9 7.16 6.81zm.11-18.58c1.98-.1 3.98-.06 5.94-.33 3.04-.43 4.62-2.24 4.62-5.4 0-2.97-.95-5.03-4.17-5.78-2.95-.69-5.9-.62-8.87-.64-5.4-.02-4.76-.26-4.79 4.81-.04 7.29-.04 7.29 7.27 7.34zM1029.25 654.26c-.03 8.59-2.6 15.38-10.21 19.04-10.56 5.08-24.66 1.17-27.63-13.43-.97-4.78-.72-9.6 1.08-14.2 3.29-8.4 10.98-12.79 20.3-11.73 8.25.93 14.77 7.33 16.12 15.91.26 1.64.26 3.31.34 4.41zm-32.77.82c.11 1.21.14 3.05.48 4.83 1.15 6.06 5.87 10.31 11.92 10.88 6.1.57 11.54-2.69 13.67-8.56 2.06-5.69 1.91-11.47-.87-16.89-2.52-4.92-6.91-7.04-12.35-6.69-5.37.34-9.35 2.78-11.47 8.02-1.03 2.56-1.13 5.16-1.38 8.41zM1124 655.01c0-5.82.07-11.64-.04-17.46-.04-2.09.5-2.97 2.76-2.93 7.82.11 15.63.05 23.45.04 1.59 0 2.88-.06 2.89 2.25.01 2.21-1.09 2.36-2.78 2.34-5.65-.05-11.31.11-16.96-.07-2.85-.09-4.2.44-4.09 3.75.36 10.51-1.33 8.49 8.65 8.69 3.49.07 6.99.04 10.48 0 1.77-.02 3.32-.1 3.24 2.48-.07 2.38-1.6 2.09-3.07 2.09-5.16.01-10.32.1-15.47-.04-2.61-.07-4.08.45-3.81 3.52.29 3.3-1.05 7.64.6 9.67 1.76 2.18 6.26.58 9.56.68 3.99.12 7.98.08 11.97.01 1.73-.03 2.81.23 2.76 2.38-.04 1.88-.55 2.61-2.57 2.59-8.32-.1-16.63-.11-24.95.01-2.39.04-2.69-1.08-2.66-3.02.09-5.67.04-11.33.04-16.98zM1263.46 675.31c-3.03-.02-5.99-.32-8.71-1.77-3.72-1.98-6.24-4.85-6.93-9.17-.19-1.2-.72-2.39 1.14-2.51 1.34-.08 3.34-1.34 3.78.88.64 3.28 2.38 5.43 5.33 6.67 3.14 1.31 6.4 1.56 9.75.8 3.92-.88 5.98-2.92 6.19-6.04.26-3.85-2.36-5.25-5.31-6.18-4.26-1.35-8.68-2.24-12.88-3.75-4.66-1.68-6.93-5.09-6.9-9.34.03-4.43 2.71-8.1 7.17-9.78.62-.23 1.26-.41 1.89-.59 4.84-1.33 9.54-.89 14 1.34 2.61 1.31 4.5 3.37 5.38 6.24.4 1.32 1.73 3.08-.19 3.77-1.54.56-3.58 1.26-4.78-1.67-2.29-5.59-11.31-7.51-16.05-3.81-3.41 2.66-2.95 6.95 1.07 8.73 1.95.86 4.08 1.32 6.15 1.9 2.23.63 4.51 1.11 6.73 1.8 6.64 2.08 9.4 5.89 8.8 11.96-.53 5.32-5.18 9.63-11.15 10.28-1.48.18-2.99.17-4.48.24zM161.14 649.27c0-4 .08-8-.03-12-.06-1.93.59-2.68 2.55-2.67 1.91.02 3.15.22 3.08 2.66-.27 8.98.45 17.99-.68 26.96-.1.82-.24 1.66-.53 2.42-2.07 5.36-6.37 9.52-17.76 8.52-6.62-.58-11.01-4.06-12.06-10.49-1.52-9.26-.36-18.63-.72-27.94-.08-1.97 1.01-2.11 2.51-2.1 1.57.02 2.96-.1 2.93 2.23-.1 6.16-.04 12.33-.04 18.5 0 1.67-.03 3.34.09 5 .6 7.9 4.32 10.96 12.14 10.04 5.49-.64 8.05-3.1 8.38-8.64.25-4.15.05-8.33.05-12.49h.09zM772.11 674.42c-5.56.88-5.56.88-7.37-3.68-3.23-8.14-3.23-8.14-11.16-8.15-8.89-.01-8.93-.03-11.88 8.45-.8 2.3-1.41 4.38-4.63 3.96-1.76-.23-2.44-.59-1.75-2.38 4.66-12.05 9.34-24.08 13.91-36.16.84-2.21 2.5-1.69 4.09-1.85 2.27-.22 3.13 1.05 3.89 2.96 3.73 9.38 7.61 18.71 11.41 28.06 1.19 2.91 2.32 5.83 3.49 8.79zm-12.39-16.34c-2.28-6.16-4.36-11.76-6.76-18.23-2.02 5.64-3.67 10.26-5.33 14.88-.11.31-.3.59-.42.9-.57 1.48-.6 2.52 1.52 2.47 3.46-.09 6.93-.02 10.99-.02zM627.52 675.25c-9.24.25-16.24-4.32-18.18-17.39-1.47-9.87 2.16-20.42 14.17-23.55 7.95-2.08 16.16 1.34 19.32 8.36.4.88 2.45 2.42.21 3.17-1.53.51-3.92 2.16-5.09-.81-2.22-5.62-6.65-6.97-12.09-6.32-5.63.67-9.29 4.23-10.46 10.4-.75 3.93-.75 7.94.17 11.87 1.39 5.92 5.16 9.25 10.98 9.82 5.26.52 9.36-1.77 11.75-7.24 1.01-2.33 1.94-3.24 4.33-2.17 2.58 1.15 1.51 2.81.72 4.46-3.2 6.74-8.58 9.81-15.83 9.4zM9.8 654.63c0-5.65.11-11.31-.05-16.95-.07-2.45.76-3.12 3.14-3.05 5.64.17 11.3-.15 16.94.33 6.52.55 10.15 4.15 10.39 10.36.28 7.25-3.17 11.87-9.81 12.59-3.95.43-7.97.51-11.95.33-2.95-.14-3.68.97-3.51 3.67.2 3.15.07 6.31.04 9.47-.02 1.72.6 3.63-2.48 3.66-2.87.03-2.74-1.54-2.73-3.45.03-5.66.02-11.31.02-16.96zm12.85-15.42c-7.65 0-7.65 0-7.65 7.86 0 1.65.01 3.31.02 4.96 0 1.21.59 1.8 1.82 1.74 4.28-.19 8.6.48 12.83-.73 3.55-1.02 5.36-3.23 5.33-6.72-.04-3.45-1.96-5.8-5.43-6.69-2.29-.58-4.61-.36-6.92-.42zM387.98 654.77c0-5.83.11-11.66-.05-17.49-.07-2.4 1-2.7 2.97-2.69 2.05.01 2.96.55 2.93 2.83-.11 9.33-.07 18.65-.03 27.98.02 4.97-.81 4.6 4.41 4.63 4.16.02 8.33.11 12.49-.04 2.12-.08 2.48.89 2.49 2.68.01 1.74-.66 2.31-2.35 2.29-6.83-.06-13.66-.1-20.48.02-2.17.04-2.42-.98-2.4-2.73.05-5.82.01-11.65.02-17.48zM508.28 654.31c0-5.5.03-11-.01-16.5-.02-1.8-.05-3.24 2.5-3.21 2.22.02 2.83.81 2.81 2.94-.08 11.5-.07 22.99-.01 34.49.01 2.02-.46 2.98-2.77 2.99-2.54 0-2.55-1.4-2.54-3.21.04-5.84.02-11.67.02-17.5z" class="st0"/>
  <path d="M813.79 505.08c1.26.23 4.29-1.01 1.86 2.27-1.21 1.63-.62 3.54-.63 5.3-.04 32.04-.02 64.08-.02 96.12-2.08-1.25-.95-3.27-.95-4.85-.09-31.12-.07-62.24-.08-93.36 0-1.83-.11-3.65-.18-5.48zM1168.04 555.76c1.41-1.34 3.17-.73 4.76-.74 25.76-.04 51.52-.05 77.28.02 1.64 0 3.75-.99 4.82 1.33-9.65-.07-19.3-.18-28.95-.2-16.31-.04-32.63.01-48.94-.03-2.99-.01-5.98-.24-8.97-.38zM1013.63 632.06c-1.02.03-1.93-.24-2.84-.71-2.31-1.19-4.64-2.85-6.81.44-.42.64-1.93.66-2.68-.21-.58-.68-.2-1.56.13-2.32 1.19-2.7 4.1-4.09 7-2.96 2.88 1.12 5.45 2.97 8.31-.29.74-.84 2.58-.24 2.2 1.85-.46 2.56-2.57 4.27-5.31 4.2z" class="st0"/>
  <g>
    <path d="M640.5 1c.8 0 1.11.31 2.05 1.01s52.44 30.53 76.47 44.41c3.5 2.02 3.58 2.08.7 5-11.83 11.97-23.77 23.83-35.51 35.88-2.12 2.18-3.73 1.95-6.02.61-11.19-6.53-22.52-12.83-33.63-19.48-3.01-1.8-5.18-1.67-8.16.05-41.53 24.09-83.13 48.07-124.76 71.99-2.39 1.38-3.49 2.77-3.48 5.73.09 48.5.09 97-.12 145.49-.01 3.45 1.68 4.29 4.01 5.62 28.33 16.28 56.62 32.65 84.91 49 13.22 7.64 26.48 15.2 39.57 23.04 2.85 1.71 4.98 1.8 7.74.16 10.42-6.17 20.96-12.13 31.39-18.29 2.31-1.36 3.86-1.57 6 .61 12.04 12.22 24.27 24.26 36.42 36.37l.03.03c1.19 1.19.85 3.21-.61 4.05-10.35 5.93-20.56 11.76-30.74 17.63-14.24 8.2-28.52 16.34-42.64 24.75-2.71 1.62-4.6 1.48-7.16-.01-31.44-18.24-62.93-36.39-94.41-54.56-29.31-16.92-58.62-33.86-87.98-50.69-1.86-1.06-2.72-2.13-2.62-4.23.12-2.49.02-5 .02-7.5-.01-67.16.02-134.33-.14-201.49-.01-4.49 1.17-7.12 5.22-9.43 34.92-19.91 69.71-40.06 104.53-60.14C586.05 32.5 637.6 3.1 638.47 1.97c.48-.61 1.24-.97 2.03-.97zM749.98 308.36c6.48-3.79 12.84-7.68 19.38-11.23 2.68-1.45 3.71-3.09 3.7-6.19-.1-48.15-.1-96.3.02-144.45.01-3.15-1.12-4.82-3.71-6.2-4.84-2.56-9.54-5.39-14.36-7.98-2.35-1.27-2.67-2.42-.67-4.4 12.31-12.18 24.55-24.42 36.79-36.67 1.47-1.47 2.63-1.83 4.68-.62 10.15 6.01 20.41 11.82 30.68 17.61 1.98 1.11 2.77 2.47 2.72 4.78-.15 6.66-.05 13.33-.05 19.99 0 63.14-.04 126.29.09 189.43.01 4.03-1.23 6.17-4.76 8.08-10.35 5.6-20.48 11.6-30.65 17.52-1.94 1.13-3.38 1.49-5.23-.39-12.49-12.7-25.09-25.28-37.64-37.92-.34-.33-.58-.78-.99-1.36z" class="st0"/>
    <path d="M829.57 404.52c-.53-.62-1.03-1.29-1.61-1.87-12.88-12.87-182-182.14-177.68-186.47 4.32-4.34 164.92-166.36 176.12-178.1-.64-.17-2.14.78-3.67 1.28-14.19 4.67-101.65 33.53-107.6 35.48-2.33.77-4.89 1.28-6.61 3.16-5.57 6.09-75.33 75.31-80.54 80.99 0 0-4.3 3.76-7.13 6.23 0-3.37.15-28.54.16-31.19.02-5.17 0-5.21-4.99-5.22-12.93-.04-25.85-.1-38.78-.01-3.93.03-9.1-1.71-11.5.81-2.78 2.91-.71 8.17-.85 12.4.01 5.67-.09 162.28-.08 164.43.02 5.95-.8 5.74 5.49 5.73 12.76-.02 25.52.03 38.28-.06 3.94-.03 9.22 1.73 11.49-.69 2.67-2.85.75-8.17.76-12.42.32-4.67-.24-19.68.59-22.64 4.33 3.01 67.21 66.37 75.55 74.69 4.77 4.95 8.73 10.78 15.67 13.24 21.3 7.53 42.56 15.17 63.85 22.75 10.24 3.65 20.44 7.44 30.77 10.82 7.21 2.36 14.01 5.93 21.54 7.34.21.38.51.76.93.4.38-.31.09-.74-.16-1.08z" class="st0"/>
  </g>
</svg>
