<?xml version="1.0" encoding="UTF-8"?>
<!DOCTYPE svg PUBLIC "-//W3C//DTD SVG 1.1//EN" "http://www.w3.org/Graphics/SVG/1.1/DTD/svg11.dtd">
<!-- Creator: CorelDRAW 2017 -->
<svg xmlns="http://www.w3.org/2000/svg" xml:space="preserve" width="147.844mm" height="50.3955mm" version="1.1" style="shape-rendering:geometricPrecision; text-rendering:geometricPrecision; image-rendering:optimizeQuality; fill-rule:evenodd; clip-rule:evenodd"
viewBox="0 0 28038.81 9557.57"
 xmlns:xlink="http://www.w3.org/1999/xlink">
 <defs>
  <style type="text/css">
   <![CDATA[
    .fil0 {fill:#FEFEFE;fill-rule:nonzero}
   ]]>
  </style>
 </defs>
 <g id="Camada_x0020_1">
  <metadata id="CorelCorpID_0Corel-Layer"/>
  <path class="fil0" d="M-0 2006.41l1336.09 0 0 786.71c172.22,-270.27 407.07,-488.9 702.81,-655.89 295.74,-168.69 624.54,-253.05 984.67,-253.05 628.01,0 1162.11,244.46 1598.76,731.64 438.4,487.18 657.62,1167.17 657.62,2038.24 0,893.47 -220.94,1588.95 -661.11,2084.74 -441.87,495.79 -977.69,743.68 -1605.72,743.68 -299.21,0 -570.6,-58.53 -814.17,-175.6 -241.81,-118.78 -497.53,-320.19 -767.18,-605.95l0 2699.29 -1431.77 0 0 -7393.8zm0 -925.69l123.46 -10.6c7.32,36.28 22.38,62.87 45.19,79.86 22.68,16.86 53.25,25.43 91.87,25.43 40.83,0 71.69,-7.55 92.3,-22.76 20.79,-15.08 31.18,-32.71 31.18,-52.89 0,-13.03 -4.4,-24.03 -13.18,-33.11 -8.63,-9.2 -23.84,-17.11 -45.63,-23.76 -14.77,-4.59 -48.72,-12.52 -101.54,-24.03 -68.01,-14.68 -115.71,-32.83 -143.05,-54.3 -38.61,-30.15 -57.92,-66.97 -57.92,-110.41 0,-27.97 9.07,-54.05 27.2,-78.46 18.15,-24.28 44.32,-42.8 78.4,-55.59 34.23,-12.65 75.35,-19.04 123.61,-19.04 79.01,0 138.24,15.08 178.18,45.25 39.81,30.27 60.71,70.53 62.77,121l-126.84 4.86c-5.42,-28.24 -17.13,-48.55 -34.97,-60.82 -17.85,-12.38 -44.61,-18.53 -80.3,-18.53 -36.87,0 -65.83,6.52 -86.61,19.8 -13.45,8.44 -20.18,19.82 -20.18,34 0,13.03 6.3,24.14 18.87,33.34 15.93,11.76 54.87,24.03 116.6,36.68 61.73,12.78 107.36,25.94 136.91,39.49 29.55,13.67 52.67,32.2 69.49,55.85 16.67,23.63 25.01,52.78 25.01,87.41 0,31.43 -9.94,60.95 -29.98,88.28 -20.05,27.48 -48.27,47.92 -84.85,61.22 -36.56,13.41 -82.21,20.07 -136.78,20.07 -79.43,0 -140.44,-15.97 -183.01,-48.06 -42.56,-32.07 -68.01,-78.84 -76.2,-140.17zm857.53 178.52l0 -548.85 126.84 0 0 548.85 -126.84 0zm459.51 -178.52l123.46 -10.6c7.3,36.28 22.38,62.87 45.19,79.86 22.66,16.86 53.25,25.43 91.87,25.43 40.81,0 71.67,-7.55 92.3,-22.76 20.77,-15.08 31.16,-32.71 31.16,-52.89 0,-13.03 -4.4,-24.03 -13.16,-33.11 -8.63,-9.2 -23.84,-17.11 -45.65,-23.76 -14.77,-4.59 -48.7,-12.52 -101.52,-24.03 -68.03,-14.68 -115.71,-32.83 -143.05,-54.3 -38.63,-30.15 -57.94,-66.97 -57.94,-110.41 0,-27.97 9.07,-54.05 27.2,-78.46 18.15,-24.28 44.34,-42.8 78.42,-55.59 34.23,-12.65 75.33,-19.04 123.61,-19.04 78.99,0 138.24,15.08 178.18,45.25 39.79,30.27 60.71,70.53 62.76,121l-126.84 4.86c-5.41,-28.24 -17.11,-48.55 -34.95,-60.82 -17.85,-12.38 -44.62,-18.53 -80.32,-18.53 -36.85,0 -65.83,6.52 -86.59,19.8 -13.47,8.44 -20.2,19.82 -20.2,34 0,13.03 6.3,24.14 18.89,33.34 15.93,11.76 54.85,24.03 116.58,36.68 61.73,12.78 107.38,25.94 136.93,39.49 29.55,13.67 52.67,32.2 69.49,55.85 16.67,23.63 25.01,52.78 25.01,87.41 0,31.43 -9.96,60.95 -30,88.28 -20.03,27.48 -48.27,47.92 -84.83,61.22 -36.58,13.41 -82.21,20.07 -136.78,20.07 -79.44,0 -140.46,-15.97 -183.01,-48.06 -42.56,-32.07 -68.03,-78.84 -76.2,-140.17zm1002.78 178.52l0 -455.94 -186.37 0 0 -92.91 499.28 0 0 92.91 -185.92 0 0 455.94 -126.99 0zm638.69 0l0 -548.85 465.78 0 0 92.91 -338.94 0 0 121.64 315.39 0 0 92.4 -315.39 0 0 149.37 350.93 0 0 92.53 -477.77 0zm827.54 0l0 -548.85 189.88 0 113.96 374.41 112.63 -374.41 190.31 0 0 548.85 -117.75 0 0 -432.04 -124.77 432.04 -122.15 0 -124.35 -432.04 0 432.04 -117.75 0zm1510.7 0l-138.09 0 -54.87 -124.73 -251.17 0 -51.77 124.73 -134.6 0 244.74 -548.85 134.14 0 251.61 548.85zm-233.61 -217.11l-86.59 -203.7 -84.85 203.7 171.44 0zm1470.33 -331.74l126.54 0 0 347.46c0,45.36 -4.68,80.37 -13.75,104.78 -12.27,31.94 -34.54,57.63 -66.85,76.92 -32.34,19.42 -74.89,29.02 -127.71,29.02 -62.02,0 -109.71,-15.1 -143.21,-45.5 -33.36,-30.29 -50.33,-74.76 -50.47,-133.42l119.52 -12c1.46,31.43 6.71,53.67 15.8,66.7 13.75,19.69 34.67,29.53 62.6,29.53 28.24,0 48.29,-7.04 59.99,-21.22 11.68,-14.05 17.54,-43.32 17.54,-87.79l0 -354.48zm504.55 0l126.82 0 0 297.24c0,47.15 1.61,77.81 4.68,91.75 5.42,22.47 18.43,40.49 38.76,54.05 20.48,13.65 48.42,20.44 83.83,20.44 36,0 63.19,-6.39 81.47,-19.31 18.3,-12.76 29.26,-28.62 32.92,-47.28 3.79,-18.78 5.56,-49.84 5.56,-93.29l0 -303.61 126.84 0 0 288.29c0,65.94 -3.38,112.46 -10.24,139.68 -6.88,27.21 -19.46,50.09 -37.89,68.86 -18.43,18.66 -43.16,33.61 -73.87,44.74 -30.88,11.11 -71.25,16.61 -120.98,16.61 -59.99,0 -105.48,-6.01 -136.49,-18.15 -31.01,-12.14 -55.45,-27.86 -73.43,-47.17 -18,-19.29 -29.85,-39.6 -35.54,-60.82 -8.34,-31.43 -12.44,-77.81 -12.44,-139.28l0 -292.76zm878.88 548.85l0 -548.85 267.12 0c67.14,0 115.86,4.99 146.3,14.83 30.42,9.84 54.85,27.35 73.13,52.51 18.3,25.3 27.37,54.05 27.37,86.5 0,41.15 -13.9,75.27 -41.55,102.11 -27.65,26.7 -69.18,43.71 -124.35,50.62 27.52,14.05 50.18,29.38 68.03,46.12 17.85,16.75 41.84,46.39 72.12,89.06l76.81 107.1 -151.7 0 -91.72 -119.48c-32.64,-42.69 -54.87,-69.53 -66.85,-80.64 -12,-11.11 -24.73,-18.66 -38.2,-22.87 -13.45,-4.1 -34.67,-6.13 -63.91,-6.13l-25.6 0 0 229.12 -126.99 0zm126.99 -316.79l93.76 0c60.86,0 98.88,-2.16 114.09,-6.64 15.08,-4.48 26.91,-12.27 35.56,-23.25 8.48,-11 12.88,-24.67 12.88,-41.15 0,-18.53 -5.71,-33.36 -16.97,-44.72 -11.27,-11.38 -27.21,-18.53 -47.85,-21.6 -10.22,-1.16 -41.1,-1.78 -92.59,-1.78l-98.88 0 0 139.15zm746.51 316.79l0 -548.85 126.82 0 0 548.85 -126.82 0zm-14.49 -580.29l59.1 -111.93 135.01 0 -117.89 111.93 -76.22 0zm505.7 31.44l231.87 0c52.23,0 92.02,3.45 119.52,10.49 36.87,9.44 68.46,26.32 94.64,50.6 26.34,24.14 46.39,53.8 60.14,88.81 13.6,35.14 20.46,78.33 20.46,129.84 0,45.1 -6.43,84.07 -19.31,116.79 -15.65,39.86 -38.03,72.2 -67.29,96.87 -21.94,18.78 -51.64,33.34 -89.08,43.83 -27.94,7.79 -65.39,11.63 -112.35,11.63l-238.6 0 0 -548.85zm126.84 92.91l0 363.41 94.64 0c35.41,0 61.01,-1.65 76.81,-5.23 20.48,-4.48 37.59,-12 51.19,-22.74 13.62,-10.73 24.6,-28.5 33.21,-53.05 8.5,-24.52 12.88,-58.13 12.88,-100.55 0,-42.42 -4.38,-74.89 -12.88,-97.63 -8.61,-22.74 -20.62,-40.51 -35.98,-53.16 -15.49,-12.78 -35.1,-21.34 -58.81,-25.81 -17.69,-3.58 -52.36,-5.23 -104.16,-5.23l-56.9 0zm747.38 455.94l0 -548.85 126.82 0 0 548.85 -126.82 0zm893.66 -201.79l122.88 34c-18.85,59.93 -50.16,104.4 -94.05,133.53 -43.73,29.02 -99.47,43.58 -166.91,43.58 -83.39,0 -152.01,-24.92 -205.7,-74.63 -53.67,-49.84 -80.6,-117.96 -80.6,-204.22 0,-91.35 27.08,-162.28 81.06,-212.88 53.97,-50.49 124.92,-75.78 212.98,-75.78 76.81,0 139.28,19.82 187.26,59.55 28.66,23.38 50.03,57.12 64.37,101.08l-125.66 26.19c-7.32,-28.49 -22.82,-50.98 -46.52,-67.48 -23.55,-16.48 -52.23,-24.65 -85.87,-24.65 -46.52,0 -84.39,14.57 -113.37,43.83 -28.96,29.15 -43.45,76.41 -43.45,141.84 0,69.39 14.2,118.85 42.86,148.23 28.52,29.53 65.7,44.23 111.34,44.23 33.78,0 62.74,-9.33 87.03,-28.11 24.28,-18.68 41.69,-48.19 52.36,-88.32zm449.99 -69.26c0,-55.97 9.5,-102.87 28.68,-140.82 14.34,-27.86 33.8,-53.03 58.51,-75.25 24.71,-22.11 51.79,-38.59 81.19,-49.33 39.2,-14.58 84.26,-21.73 135.47,-21.73 92.59,0 166.61,25.05 222.2,75.27 55.61,50.09 83.39,119.86 83.39,209.19 0,88.68 -27.65,157.94 -82.78,208.05 -55.17,49.95 -128.89,75.01 -221.06,75.01 -93.48,0 -167.78,-24.92 -222.93,-74.63 -55.15,-49.84 -82.65,-118.48 -82.65,-205.75zm130.63 -3.7c0,62.11 16.52,109.26 49.31,141.33 32.9,32.07 74.59,48.06 125.21,48.06 50.47,0 92.02,-15.85 124.49,-47.79 32.34,-31.82 48.57,-79.48 48.57,-143.13 0,-62.87 -15.8,-109.77 -47.24,-140.82 -31.6,-30.93 -73.58,-46.39 -125.81,-46.39 -52.36,0 -94.5,15.72 -126.54,47.03 -31.9,31.31 -47.98,78.46 -47.98,141.71zm836.44 -269.27l209.07 1604.51 317.8 -376.34 376.34 660.69 184 -108.73 -401.43 -660.69 510.14 -33.44 -1195.92 -1086zm14855.09 -664.2c120.45,0 237.97,30.84 352.9,92.53 114.61,62.02 204.22,150.32 268.19,265.57 63.95,114.95 96.1,235.07 96.1,360.07 0,123.69 -31.48,242.53 -94.81,356.49 -62.98,114.28 -151.61,202.91 -265.25,265.89 -113.96,63.32 -232.8,94.81 -357.13,94.81 -124.35,0 -243.51,-31.48 -357.13,-94.81 -113.96,-62.98 -202.6,-151.61 -265.91,-265.89 -63.63,-113.96 -95.13,-232.8 -95.13,-356.49 0,-125 32.15,-245.12 96.42,-360.07 64.29,-115.25 153.9,-203.55 268.83,-265.57 114.61,-61.69 232.46,-92.53 352.92,-92.53zm0 118.84c-100.97,0 -199.02,25.96 -294.47,77.59 -95.45,51.62 -170.14,125.64 -224.03,221.42 -53.9,96.12 -80.83,196.12 -80.83,300.33 0,103.25 26.61,202.26 79.54,297.07 52.91,94.81 126.93,168.83 222.06,221.74 95.13,52.93 194.16,79.54 297.73,79.54 103.25,0 202.59,-26.61 297.71,-79.54 95.13,-52.91 168.83,-126.93 221.42,-221.74 52.61,-94.81 78.89,-193.82 78.89,-297.07 0,-104.21 -26.61,-204.22 -80.18,-300.33 -53.58,-95.77 -128.24,-169.79 -224.02,-221.42 -95.79,-51.62 -193.84,-77.59 -293.83,-77.59zm-314.93 995.74l0 -772.05 265.27 0c90.9,0 156.48,6.81 197.07,21.11 40.59,14.28 72.73,39.28 97.08,74.67 24.01,35.71 36.03,73.38 36.03,113.32 0,56.48 -20.14,105.5 -60.38,147.4 -40.26,41.87 -93.84,65.26 -160.39,70.46 27.27,11.36 49.35,25 65.58,40.91 31.16,30.51 69.15,81.47 114.28,153.24l94.14 150.96 -152.27 0 -68.5 -121.74c-53.9,-95.45 -97.08,-155.53 -130.2,-179.54 -22.72,-17.87 -56.16,-26.63 -99.98,-26.63l-73.05 0 0 327.91 -124.68 0zm124.68 -434.4l151.28 0c72.09,0 121.43,-11.04 147.74,-32.47 26.29,-21.43 39.6,-50.01 39.6,-85.72 0,-22.72 -6.49,-43.18 -19.15,-61.35 -12.65,-17.87 -30.19,-31.5 -52.59,-40.26 -22.74,-9.08 -64.29,-13.31 -125.32,-13.31l-141.56 0 0 233.12zm-7645.96 6628.31l0 -804.8c-196.88,286.7 -454.21,512.93 -771.98,678.72 -319.51,164.07 -656.27,246.96 -1010.31,246.96 -360.96,0 -683.9,-79.43 -970.6,-236.59 -286.68,-158.89 -493.93,-381.67 -623.46,-668.37 -127.79,-286.68 -191.7,-683.9 -191.7,-1189.91l0 -3398.8 1421.34 0 0 2467.91c0,756.44 25.91,1219.29 79.44,1390.26 51.81,169.26 146.81,303.97 284.97,404.13 138.16,100.17 314.31,148.53 526.74,148.53 243.51,0 461.12,-65.64 652.82,-198.62 191.7,-134.71 322.96,-298.78 393.75,-495.65 70.82,-198.6 107.08,-682.18 107.08,-1450.7l0 -2265.86 1421.34 0 0 5372.78 -1319.44 0zm6760.06 40.17l-1316.27 0 0 -787.36c-218.8,306.68 -477.24,534.1 -775.29,683.98 -298.06,149.9 -597.82,223.98 -901.05,223.98 -616.78,0 -1143.98,-248.08 -1583.3,-744.27 -437.6,-496.18 -658.13,-1188.79 -658.13,-2076.05 0,-909.66 213.62,-1600.54 640.89,-2072.6 427.28,-472.06 968.26,-709.83 1621.21,-709.83 597.84,0 1116.42,249.83 1554.02,747.74l0 -2665.28 1417.93 0 0 7399.7zm-3785.13 -2796.2c0,571.99 79.26,985.47 237.75,1242.18 227.43,368.7 547.88,554.77 957.93,554.77 327.34,0 604.72,-139.56 833.86,-416.93 227.41,-277.38 342.85,-692.61 342.85,-1243.92 0,-615.06 -111.99,-1059.54 -332.52,-1330.04 -222.25,-270.48 -506.52,-406.59 -854.53,-406.59 -335.97,0 -616.8,134.39 -844.21,401.43 -227.41,267.03 -341.13,666.74 -341.13,1199.11zm-8394.04 -2614.99l1417.85 0c0,1903.85 0,3807.68 0,5711.54 0,540.13 -44.8,921.08 -132.66,1142.84 -89.59,221.78 -261.85,394.55 -515.09,519.72 -254.99,125.19 -578.85,187.75 -971.66,187.75 -141.27,0 -294.68,-10.34 -456.53,-29.93 -163.74,-19.84 149.86,66.07 -37.95,26.63l8.04 -1157c563.66,33.7 688,71.67 688,-753.96 0,-1882.53 0,-3765.05 0,-5647.58zm-5874.18 2636.19c0,-464.82 115.78,-916.02 343.93,-1351.89 229.86,-434.17 555.05,-767.9 975.62,-996.05 420.55,-229.86 890.47,-345.64 1409.79,-345.64 800.23,0 1457.45,260.5 1969.96,781.51 512.49,521.01 767.88,1178.23 767.88,1973.36 0,800.25 -258.8,1464.28 -774.71,1992.12 -517.6,527.82 -1168,790.01 -1952.93,790.01 -486.95,0 -948.37,-108.95 -1389.35,-328.61 -441,-219.64 -776.41,-541.44 -1006.27,-965.4 -228.15,-423.95 -343.93,-939.85 -343.93,-1549.41zm1437.02 74.93c0,526.11 124.3,927.94 374.58,1207.17 248.59,279.24 556.78,418.86 922.84,418.86 366.06,0 672.54,-139.62 919.43,-418.86 248.58,-279.22 372.87,-684.47 372.87,-1217.39 0,-517.6 -124.3,-917.72 -372.87,-1196.96 -246.89,-279.22 -553.36,-418.84 -919.43,-418.84 -366.06,0 -674.25,139.62 -922.84,418.84 -250.28,279.24 -374.58,682.76 -374.58,1207.19zm-2882.26 2580.53l-1371.96 0 0 -5240.37 1273.58 0 8.36 928.51c387.31,-814.32 981.18,-1152.21 1775.99,-1044.62l27.48 1346.86c-824.72,-87.71 -1335.92,167.69 -1598.44,633.93 -142.24,252.65 -115.02,865.81 -115.02,1756.91l0 1618.77zm-5329.03 -2686.35c0,600.81 120.03,1046.67 361.84,1332.45 240.1,287.47 534.1,432.08 882.03,432.08 332.29,0 608.88,-132.55 829.82,-395.93 220.94,-263.39 332.29,-697.21 332.29,-1298.01 0,-562.92 -114.81,-979.53 -342.72,-1251.53 -227.88,-272 -509.73,-408 -845.48,-408 -349.68,0 -640.21,132.57 -871.58,401.11 -231.37,266.84 -346.19,662.77 -346.19,1187.82z"/>
 </g>
</svg>
