<svg id="Layer_1" xmlns="http://www.w3.org/2000/svg" xmlns:xlink="http://www.w3.org/1999/xlink" viewBox="0 0 1216.16 624.72" style="enable-background:new 0 0 1216.16 624.72"><style>.st0{fill:#173f5d}.st1{fill:url(#SVGID_1_)}</style><g><g><path class="st0" d="M685.31 40.84c-3.51 3.8-7.37 6.77-11.02 9.98-8.92 7.85-17.93 15.6-26.9 23.39-.18.16-.37.3-.52.48-1.52 1.81-3.09 1.8-5.23.78-11.98-5.71-23.83-11.68-35.6-17.81-2.04-1.06-3.69-1.04-5.68-.05-28.39 14.23-56.79 28.42-85.2 42.61-14.1 7.04-28.17 14.13-42.33 21.05-1.99.97-2.39 2.14-2.37 4.1.08 9.39.03 18.78.03 28.17.0 32.45-.01 64.9-.01 97.35.0.83.07 1.67-.02 2.49-.15 1.42.53 2.01 1.77 2.62 25.89 12.88 51.76 25.81 77.62 38.75 16.74 8.38 33.49 16.75 50.19 25.23 2.43 1.24 4.47.92 6.72-.22 10.47-5.3 20.97-10.53 31.46-15.79.53-.27 1.09-.49 1.59-.8 1.34-.83 2.36-.81 3.7.36 10.72 9.4 21.56 18.67 32.3 28.05 2.3 2.01 5.02 3.59 6.85 6.26-.76 1.29-2.12 1.55-3.22 2.1-22.9 11.42-45.82 22.8-68.74 34.19-.32.16-.63.34-.95.47-2.3.92-4.29 3.27-6.66 3.05-2.31-.22-4.5-1.95-6.72-3.06-59.79-29.87-119.57-59.75-179.38-89.56-2.21-1.1-2.99-2.33-2.99-4.82.05-60.86.03-121.72-.09-182.58-.01-2.57.93-3.77 3.03-4.86 20.7-10.79 41.81-20.78 62.65-31.29 26.66-13.45 53.48-26.58 80.08-40.16 13.93-7.11 28.02-13.91 41.99-20.93 1.26-.64 2.13-.45 3.26.12 19.59 9.84 39.2 19.65 58.8 29.47C670.81 33.54 677.9 37.11 685.31 40.84zM715.36 269.07c12.28 10.69 24.59 21.33 36.83 32.06 1.46 1.28 2.61 1.03 4.12.27 10.9-5.47 21.8-10.98 32.8-16.25 2.48-1.19 3.38-2.45 3.38-5.29-.1-60.61-.07-121.22-.06-181.83.0-.59-.08-1.2.02-1.78.26-1.58-.56-2.31-1.88-2.96-10.63-5.24-21.25-10.49-31.81-15.85-1.81-.92-2.97-.65-4.42.61-11.93 10.36-23.92 20.65-35.88 30.97-1.07.93-2.21 1.82-3 3.13 2.74 1.91 5.8 3.19 8.77 4.63 3.3 1.6 6.57 3.28 9.89 4.85 1.36.64 2 1.54 1.8 3.06-.08.58-.01 1.19-.01 1.78.0 41.48.01 82.95.01 124.43.0.71-.08 1.44.02 2.14.21 1.55-.53 2.32-1.87 2.97-5.75 2.81-11.45 5.71-17.14 8.63-1.25.64-2.67 1.02-3.67 2.14C713.69 267.78 714.58 268.39 715.36 269.07z"/><linearGradient id="SVGID_1_" gradientUnits="userSpaceOnUse" x1="660.0311" y1="350.7862" x2="660.0311" y2="31.9285"><stop offset="0" style="stop-color:#4b4b4b"/><stop offset=".505" style="stop-color:#c5c5c5"/><stop offset="1" style="stop-color:#626262"/></linearGradient><path class="st1" d="M609.12 190.28c7.19-7.11 170.48-147.67 179.93-155.79.74-.64 1.68-1.19 1.81-2.26-.62-.45-1.1-.29-1.54-.17-18.61 5.33-93.78 26.68-112.75 32.06-1.34.38-2.83.59-3.94 1.56-3.91 3.42-83.83 71.48-85.15 73.82-1.68 1.35-1.67 2.03-3.2 2.09-.42-1.14-.37-2.31-.37-3.44-.03-8.54-.05-17.07.03-25.61.01-1.68-.45-2.29-2.2-2.25-5.21.12-39.88.11-52 .1-2.86.03-2.86.03-2.92 2.43-.01.47.0.95.0 1.42.0 50.77.0 101.53.0 152.3.0.83.0 1.66.0 2.49.0.53.21.89.72 1.06 18.08.0 36.17.01 54.25.0.47.0.94-.09 1.4-.14 1.28-.51.65-1.63.66-2.44.06-8.65.04-17.31.05-25.96.0-.86.09-1.73.17-2.99 2.39 2.08 79.97 69.36 84.01 72.3 2.31 1.89 4.04 3.37 6.65 4.15 9.13 2.75 106.55 32.64 115.34 35.36.9.28 1.87.76 3.14-.05C790.87 348.3 610.03 192.66 609.12 190.28z"/></g><g><path class="st0" d="M1206.78 499.7c-.07 4.27-.66 8.51-2.06 12.58-1.77 5.13-5.11 8.68-10.31 10.52-4.52 1.59-9.16 2.52-13.92 2.59-9.63.15-19.26.12-28.9.13-19.38.01-38.77-.01-58.15.01-4.64.01-9.25-.32-13.83-1.08-9.44-1.58-14.99-7.01-16.61-16.47-.68-3.99-1.1-7.99-1.05-12.04.01-1.07.21-1.7 1.48-1.93 8.25-1.49 16.48-3.09 25.04-4.71.0 3.87.01 7.54.0 11.2-.01 2.8-.31 2.82 2.58 2.81 28.9-.01 57.8.0 86.7-.01 2.48.0 2.51-.05 2.52-2.54.02-7.49-.02-14.98.03-22.47.01-1.45-.28-2.28-1.94-2.11-.82.09-1.66.01-2.5.01-25.57.0-51.14-.02-76.71.01-5.24.01-10.47-.28-15.56-1.52-9.54-2.33-14.16-6.12-15.75-17.6-1.42-10.26-1.14-20.61-.07-30.92.16-1.52.54-3.03.94-4.51 1.71-6.36 5.72-10.54 12.04-12.41 5.03-1.49 10.19-2.21 15.45-2.21 13.2-.01 26.4-.02 39.6-.02 13.32.0 26.64.01 39.96.02 4.89.0 9.66.73 14.42 1.87 8.03 1.93 12.19 7.25 13.8 14.99.63 3.03.89 6.1.9 9.2.01 2.45.02 2.49-2.43 3.02-5.9 1.27-11.82 2.5-17.73 3.74-1.97.42-3.93.85-6.13 1.32-.52-3.33-.14-6.62-.23-9.89-.1-4.13.52-3.59-3.58-3.59-25.93-.02-51.85-.01-77.78.0-4.14.0-3.52-.44-3.54 3.62-.03 6.42.0 12.84-.01 19.26-.01 2.74-.13 2.7 2.74 2.7 24.38-.01 48.76-.01 73.14.0 3.92.0 7.85-.03 11.77.15 4.51.2 8.92 1.02 13.22 2.54 5.33 1.88 8.7 5.52 10.46 10.82 1.32 3.98 1.9 8.09 1.98 12.24C1206.9 485.91 1206.89 492.81 1206.78 499.7zM788.2 406.98c-6.42.08-12.84.12-19.26-.01-2.11-.04-3.47.64-4.81 2.25-15.91 19.22-31.88 38.38-47.85 57.55-3.26 3.91-6.55 7.8-10 11.91-.6-.71-1.06-1.25-1.52-1.79-10.32-12.12-20.63-24.25-30.95-36.37-8.86-10.4-17.75-20.77-26.53-31.24-1.46-1.74-2.95-2.36-5.17-2.3-5.7.15-11.42.02-17.12.06-4.67.03-3.98-.66-3.99 3.88-.02 36.85-.01 73.7-.01 110.55.0.83.05 1.67-.01 2.5-.1 1.27.5 1.63 1.68 1.61 3.33-.05 6.66-.02 9.99-.02 3.57.0 7.14-.07 10.7.03 1.61.05 2.15-.56 1.95-2.06-.04-.35-.01-.71-.01-1.07.0-23.89-.02-47.78.02-71.68.01-3.3-.49-6.55-.7-10.71 3.72 7.42 8.63 12.91 13.29 18.58 2.49 3.03 4.94 6.08 7.43 9.12 11.36 13.88 22.72 27.76 34.1 41.63.52.63.85 1.65 1.7 1.74 1.76.18 3.56.22 5.33.11 1.33-.08 1.85-1.39 2.57-2.28 9.59-11.64 19.24-23.24 28.71-34.99 8.62-10.7 18.25-20.65 24.86-32.88.04-.07.19-.08.59-.22-.62 4.84-.91 9.56-.9 14.31.05 20.68.02 41.37.02 62.05.0 2.02-.03 4.04.01 6.06.04 2.21.06 2.25 2.41 2.26 7.02.02 14.03.01 21.05.01 4.38.0 4.38.0 4.38-4.21.0-36.73.0-73.46.0-110.19.0-.71-.07-1.44.01-2.14C790.37 407.44 789.77 406.96 788.2 406.98zM997.31 407c-7.97.01-15.93-.01-23.9.01-4.17.01-3.58-.43-3.58 3.59-.02 29.71.0 59.42-.02 89.13.0 3.96.58 3.57-3.62 3.57-26.04.01-52.08.0-78.12.0-4.32.0-4.32.0-4.32-4.31.0-29.59.0-59.19.0-88.78.0-3.51.44-3.22-3.24-3.22-7.73-.01-15.46-.02-23.19.01-4.19.02-3.63-.56-3.64 3.51-.02 28.52.0 57.05-.02 85.57.0 3.69.06 7.37.74 11 2.1 11.23 6.48 14.61 15.27 16.89 4.85 1.26 9.83 1.56 14.83 1.55 14.03-.03 28.06-.01 42.09-.01.0-.03.0-.06.0-.09 15.69.0 31.39.05 47.08-.03 4.64-.02 9.18-.96 13.59-2.44 5.33-1.79 8.8-5.39 10.56-10.71 1.35-4.09 2.01-8.31 2.02-12.59.06-30.07.03-60.14.06-90.2C999.92 406.77 999.75 407 997.31 407zM145.48 407.19c-1.06-.1-1.48-.17-1.9-.18-13.2-.01-26.4.02-39.6-.04-1.55-.01-2.72.56-3.91 1.38-21.89 15.09-43.78 30.17-65.68 45.23-1.26.86-2.39 1.96-4.14 2.45.0-1.26.0-2.44.0-3.61.0-13.79.0-27.57.0-41.36.0-.71-.07-1.44.01-2.14.21-1.63-.57-1.97-2.05-1.95-5.47.07-10.94.03-16.41.03-3.79.0-7.58.0-11.8.0.0 1.6.0 2.78.0 3.96.0 32.33.0 64.66.0 96.98.0 4.87-.01 9.75.0 14.62.0 2.8-.46 2.98 2.84 2.96 5.95-.02 11.89-.01 17.84-.01 2.5.0 5-.06 7.49.02 1.43.05 2.29-.26 2.09-1.92-.09-.7-.01-1.42-.01-2.14.0-14.74-.01-29.48.01-44.21.0-1.16-.23-2.34.27-3.6 1.03.66 2.04 1.28 3.02 1.94 23.93 16.09 47.86 32.17 71.76 48.3 1.65 1.11 3.27 1.65 5.27 1.65 13.91-.07 27.82-.03 41.74-.05 1.01.0 2.07.29 3.25-.41-31.84-20.73-63.56-41.39-95.63-62.27C88.55 444.23 116.76 425.88 145.48 407.19zM557.58 433.86c0 21.62-.02 43.24.02 64.86.01 4.18-.46 8.29-1.57 12.31-1.66 6.03-5.37 10.24-11.42 12.13-4.43 1.38-8.98 2.26-13.63 2.27-17.83.04-35.66.02-53.48.02.0.0.0-.01.0-.01-17.71.0-35.42.03-53.13-.02-4.77-.01-9.41-.94-13.94-2.47-5.34-1.8-8.77-5.46-10.54-10.74-1.45-4.31-1.99-8.81-2.01-13.3-.09-21.74-.08-43.48-.01-65.22.01-3.43.52-6.83 1.18-10.22 1.6-8.31 6.72-13.08 14.77-14.88 4.28-.96 8.63-1.55 13.05-1.55 33.99.01 67.98.0 101.98.01 4.29.0 8.53.56 12.69 1.52 9.21 2.12 13.69 7.08 15.31 16.46C557.36 427.95 557.58 430.89 557.58 433.86zM527.57 430.23c.04-1.55-.51-2.17-2.04-2.01-.59.06-1.19.01-1.78.01-30.54.0-61.08.0-91.62.0-.83.0-1.66.03-2.5.0-1.06-.03-1.49.49-1.45 1.51.02.71.0 1.43.0 2.14.0 22.69.0 45.38.0 68.06.0.71.03 1.43.0 2.14-.04.94.49 1.23 1.31 1.23.83.0 1.66.01 2.5.01 15.21.0 30.42.0 45.63.0 15.45.0 30.9.0 46.35.0.83.0 1.66.0 2.5-.02.7-.01 1.06-.37 1.07-1.09.0-.95.01-1.9.01-2.85.0-19.6.0-39.2.0-58.8C527.54 437.12 527.47 433.67 527.57 430.23zM293.09 480.66c20.07 15.07 39.48 29.64 59.48 44.65-1.54.1-2.39.21-3.25.21-12.25.01-24.5-.03-36.74.05-2.04.01-3.55-.59-5.08-1.92-12.76-11.04-25.59-22-38.39-32.98-3.34-2.86-6.71-5.68-9.99-8.61-1.14-1.01-2.3-1.44-3.84-1.43-7.85.07-15.7.02-23.54.04-2.86.01-2.9.04-2.9 3.03-.01 12.48-.01 24.96-.01 37.44.0.83-.05 1.67.01 2.49.1 1.32-.33 1.92-1.78 1.91-8.68-.05-17.36-.04-26.04.0-1.16.0-1.8-.29-1.7-1.58.06-.83.01-1.66.01-2.5.0-36.85.0-73.69.0-110.54.0-3.92.0-3.93 3.95-3.93 35.55.0 71.11.01 106.66-.01 5.14.0 10.18.44 15.08 2.07 9.14 3.04 14.09 9.45 14.24 19.06.17 10.46.1 20.92.03 31.38-.08 11.46-7.3 19.27-19.41 20.4-7.95.74-15.91.59-23.86.76C295.33 480.67 294.67 480.66 293.09 480.66zM298.25 460.54c2.15.0 4.27-.23 6.33-.8 3.35-.92 5.33-3.09 5.43-6.61.18-6.05.14-12.1.03-18.15-.07-3.49-2.09-5.6-5.4-6.65-2.44-.77-4.92-.75-7.4-.76-10.33-.03-20.66-.01-30.99-.01.0.0.0.0.0-.01-11.52.0-23.04-.01-34.55.01-2.84.0-2.87.04-2.87 2.95-.01 9.02.0 18.04.0 27.06.0 2.73-.52 2.97 2.82 2.97C253.84 460.52 276.05 460.52 298.25 460.54z"/><path d="M1216.16 593.9c0 1.66.0 3.33.0 4.99l-.33-.03-.32.09c-.79 3.68-3 6.33-6.03 8.44-2.7 1.88-5.79 2.91-8.91 3.33-5.9.8-11.85.82-17.59-1.21-5.54-1.96-9.71-5.38-11.4-11.26-.19-.68-.29-1.39-.44-2.08-.3-1.32.16-2.05 1.57-2.09.71-.02 1.42-.1 2.13-.14 2.91-.16 2.96-.17 3.82 2.56 1.21 3.86 4 6.07 7.63 7.34 4.95 1.74 10 1.9 15.06.55 1.95-.52 3.79-1.39 5.26-2.86 3.02-3.01 2.72-7.27-.69-9.83-2.04-1.53-4.41-2.24-6.84-2.83-4.83-1.17-9.67-2.32-14.5-3.49-2.09-.51-3.95-1.53-5.81-2.6-7.17-4.15-7.34-13.56-1.31-18.67 3.3-2.79 7.31-3.86 11.46-4.34 4.87-.56 9.69-.16 14.42 1.29 6.4 1.96 10.53 6.95 10.62 13.07-.81.67-1.8.48-2.72.48-1.29.0-2.73.6-3.84-.08-.99-.6-.8-2.11-1.3-3.15-1.32-2.75-3.52-4.47-6.39-5.24-4.44-1.19-8.92-1.13-13.37.02-1.28.33-2.44.95-3.46 1.77-3.93 3.18-3.27 8.27 1.39 10.26 3.39 1.44 7.03 2.1 10.61 2.87 3.82.82 7.71 1.45 11.32 2.95 4.51 1.86 8.43 4.44 9.4 9.77C1215.82 593.7 1216 593.74 1216.16 593.9zM848.03 593.68c-.46-.11-.91-.26-1.37-.39-1.66-.49-2.48-.01-3.07 1.79-1.78 5.38-5.65 8.72-11.14 9.94-3.37.75-6.82.72-10.22-.23-5.85-1.64-9.68-5.23-11.36-11.13-1.36-4.77-1.69-9.55-.68-14.41 1.46-7.04 5.47-11.7 12.57-13.45 3.16-.78 6.4-.82 9.56-.27 4.03.7 7.28 2.77 9.38 6.41.64 1.11 1.04 2.6 2 3.24 1.22.81 2.71-.36 4.12-.5.94-.09 1.9-.13 2.88-.98-2.45-7.06-7.4-11.39-14.38-13.21-6.22-1.62-12.5-1.33-18.59.82-8.13 2.87-13.27 8.64-15.19 16.97-1.44 6.26-.88 12.48 1.6 18.51 2.8 6.81 7.6 11.31 14.73 13.31 1.35.38 3.13-.03 3.97 1.2.84 1.23-1.06 2.54-.48 4.12 1.09.61 2.47.31 3.68.71.94.31 1.81.85 1.75 1.95-.05.9-.79 1.37-1.6 1.73-1.82.81-3.73.57-5.62.59-2.57.03-2.57.01-2.75 2.65-.02.35.05.7.11 1.37 3.76.38 7.5.56 11.21-.54 1.51-.45 2.82-1.24 3.84-2.46 2-2.39 1.65-4.9-.88-6.71-1-.72-2.18-.9-3.29-1.31-.46-.17-.95-.36-.77-.94.13-.42.41-1.04.73-1.12.91-.23 1.87-.23 2.82-.32 8.4-.84 14.82-4.64 18.61-12.39C852.15 594.65 852.15 594.65 848.03 593.68zM1096.48 604.48c-.95.0-2.12.0-3.28.0-9.51.0-19.02.01-28.53-.01-2.36-.01-2.4-.06-2.43-2.35-.04-4.04-.03-8.08-.01-12.12.01-2.48.04-2.52 2.52-2.52 8.32-.02 16.64-.01 24.96-.01.83.0 1.66-.02 2.5.0.82.02 1.37-.2 1.33-1.18-.04-1.19-.01-2.38-.02-3.56.0-.71-.37-1.06-1.08-1.07-.83-.01-1.66-.01-2.5-.01-8.44.0-16.88.02-25.32-.01-2.33-.01-2.37-.06-2.39-2.38-.04-3.45-.03-6.89.0-10.34.02-2.69.05-2.73 2.76-2.73 9.03-.02 18.07-.01 27.1-.01.83.0 1.66-.01 2.5-.01.71-.01 1.07-.36 1.07-1.07.01-.71.01-1.43.01-2.14.01-2.62.29-2.6-2.4-2.6-12.01.01-24.01.02-36.02.0-2.92-.01-2.41.25-2.41 2.59.0 14.97.01 29.94-.01 44.91.0 2.82.17 2.44 2.57 2.44 11.53-.01 23.06.0 34.59.0 5.35.0 5.35.0 4.89-5.31C1096.88 604.9 1096.75 604.81 1096.48 604.48zM161.76 560.38c-2.45.04-2.49.04-2.49 2.5-.01 8.55-.04 17.1.01 25.65.01 2.51-.24 4.99-.7 7.43-.76 4-2.82 6.98-6.93 8.2-4.66 1.39-9.31 1.52-13.98.02-4.56-1.46-7.1-4.58-7.54-9.29-.31-3.3-.47-6.63-.5-9.95-.07-8.06-.02-16.12-.02-24.57-1.96.0-3.49.02-5.02-.01-2.43-.04-2.38-.06-2.37 2.27.04 9.5.06 19 .05 28.5.0 2.4.37 4.75.89 7.05 1.07 4.79 3.78 8.57 8.31 10.47 8.33 3.49 16.86 3.64 25.26.2 5.06-2.07 8.09-5.93 9.2-11.37.56-2.71.68-5.41.68-8.14.02-8.07.01-16.15.01-24.22C166.63 560.29 166.63 560.29 161.76 560.38zM604.86 593.28c-1.58-.31-2.54-.2-3.15 1.69-1.49 4.68-4.71 7.89-9.37 9.53-3.56 1.25-7.3 1.37-10.91.57-6.36-1.42-10.78-5.05-12.55-11.67-1.58-5.92-1.55-11.71.34-17.5.67-2.04 1.78-3.85 3.3-5.43 4.74-4.95 10.75-5.72 17.09-5.07 5.43.56 9.13 3.71 11.31 8.62.47 1.07 1.04 1.61 2.12 1.27 1.8-.57 3.76-.47 5.78-1.46-2.42-7.22-7.41-11.49-14.34-13.35-6.33-1.7-12.72-1.35-18.92.91-7.68 2.8-12.72 8.1-14.7 16.08-1.9 7.68-1.05 15.1 2.71 22.07 2.83 5.25 7.16 8.7 12.97 10.35 4.78 1.37 9.65 1.61 14.48.96 7.31-.99 13.15-4.51 16.75-11.23C610.51 594.57 610.44 594.39 604.86 593.28zM395.95 604.48c-7.25-.01-14.51.0-21.76.0-2.84.0-2.95.45-2.94-2.83.02-12 .01-24.01.01-36.01.0-5.46.0-5.39-5.45-5.31-1.73.02-2.21.53-2.19 2.24.09 7.6.04 15.21.04 22.82.0 7.25-.01 14.5.0 21.75.0 3.28-.48 3.18 2.95 3.17 9.87.0 19.74.0 29.6.0.59.0 1.19.0 1.78-.01.69-.01 1.09-.32 1.09-1.06.0-.48.01-.95.01-1.43C399.04 604.15 399.49 604.49 395.95 604.48zM482.74 565.02c0-4.69.0-4.68-4.62-4.65-3.12.03-2.74-.26-2.74 2.96-.01 13.87.0 27.74.0 41.62.0 5.68.0 5.61 5.69 5.4 1.53-.06 1.7-.69 1.7-1.93-.03-7.71-.02-15.41-.02-23.12C482.74 578.54 482.74 571.78 482.74 565.02zM944.3 556.22c1.71-2.48 2.1-2.63 4.91-1.63 1.67.59 3.28 1.37 4.97 1.9 5.78 1.82 9.56-.65 10.45-6.99-2.06.02-4.33-1.48-5.55 1.76-.44 1.16-1.89 1.28-3.14.84-1.67-.58-3.38-1.09-5.02-1.76-1.94-.78-3.92-.93-5.93-.6-2.96.49-5.32 2.85-5.71 5.58-.08.57-.24 1.19.28 1.65C940.37 557.69 943.65 557.16 944.3 556.22zM287.61 595.15c.15 5.15-1.9 9.48-6.48 12.27-3.22 1.97-6.86 2.68-10.54 2.76-7.96.17-15.92.04-23.88.17-1.88.03-1.77-.96-1.77-2.21.01-13.18.01-26.37.01-39.55.0-2.26.01-4.51.0-6.77.0-.76.06-1.46 1.06-1.42 9.25.31 18.54-.86 27.74.72 4.7.8 8.29 3.45 10.29 7.87 2.02 4.46.36 9.78-3.9 12.91-.84.62-1.78 1.11-2.69 1.67.8.69 1.76.86 2.61 1.25C284.48 586.87 287.47 590.19 287.61 595.15zM252.32 579.65c-.02 1.35.7 1.55 1.79 1.54 2.49-.03 4.98-.01 7.48-.01.0-.04.0-.08.0-.11 2.85.0 5.71.2 8.53-.05 3.06-.27 5.79-1.48 6.97-4.66 1.65-4.48-1.11-8.82-6.05-9.64-5.66-.94-11.36-.34-17.05-.52-1.24-.04-1.67.54-1.66 1.72C252.36 571.82 252.37 575.74 252.32 579.65zM279.88 595.9c-.05-3.21-1.54-5.64-4.52-7.08-1.63-.78-3.32-1.3-5.12-1.33-2.61-.04-5.23-.01-7.84-.01.0-.04.0-.08.0-.12-2.73.0-5.47.04-8.2-.02-1.34-.03-1.91.37-1.89 1.82.08 4.39.1 8.79-.01 13.19-.04 1.83.74 2.18 2.34 2.16 4.75-.08 9.51.01 14.26-.04 2.26-.02 4.51-.39 6.55-1.42C278.38 601.6 279.93 599.15 279.88 595.9zM978.62 581.07c.78 5.29.32 10.44-1.83 15.33-4.04 9.18-11.66 13.31-21.17 14.6-1.28.17-2.61.02-3.91.02-5.46.19-10.55-1.07-15.25-3.93-5.32-3.24-8.82-7.93-10.53-13.81-1.8-6.22-1.35-12.5.97-18.51 2.48-6.42 7.24-10.9 13.63-13.22 9.11-3.3 18.2-2.95 26.75 1.96C974 567.38 977.5 573.48 978.62 581.07zM971.19 586.23c.23-7.4-1.87-13.84-8.46-18.05-5.95-3.8-12.33-3.82-18.75-1.47-5.75 2.11-9.31 6.22-10.64 12.31-.46 2.12-.39 4.24-.65 6.16-.11 5.78 1.18 10.21 3.94 13.5 5.41 6.44 12.5 7.78 20.28 6.22 5.92-1.19 10.26-4.7 12.68-10.35C970.73 591.91 971.1 589.05 971.19 586.23zM46.52 574.67c.14 5.68-3.31 11.14-8.44 13.29-4.01 1.68-8.27 1.94-12.53 2.05-3.91.1-7.83.02-11.75.02-2.98.0-2.96-.38-2.96 2.81.01 5.1-.07 10.2.04 15.3.04 1.74-.51 2.18-2.21 2.2-5.46.07-5.46.14-5.46-5.31.0-6.64.0-13.29.0-19.93.0-7.47-.01-14.95.01-22.42.01-2.25.05-2.29 2.36-2.3 7.83-.02 15.67-.01 23.5-.01 3 0 5.9.6 8.68 1.65C43.1 564.05 46.38 568.87 46.52 574.67zM38.08 571.67c-1.64-3.93-5.03-5.26-8.84-5.4-5.56-.22-11.14-.04-16.71-.08-1.19-.01-1.72.36-1.71 1.6.04 4.86.07 9.71-.02 14.57-.03 1.54.7 1.72 1.94 1.69 2.61-.06 5.21-.02 7.82-.02.0-.04.0-.07.0-.11 2.61.0 5.21-.03 7.82.01 1.45.02 2.83-.33 4.19-.72C37.71 581.73 40.14 576.59 38.08 571.67zM730.49 607.19c.4.85.78 1.71 1.42 3.12-2.53.0-4.66-.1-6.78.04-1.48.1-2.07-.67-2.57-1.82-1.57-3.7-3.24-7.36-4.73-11.09-.67-1.67-1.6-2.29-3.43-2.26-6.29.11-12.59.11-18.88.0-1.86-.03-2.69.6-3.32 2.33-1.33 3.66-2.99 7.2-4.41 10.84-.53 1.36-1.14 2.16-2.79 2.01-1.87-.17-3.77-.04-5.98-.04 2.39-5.49 4.64-10.67 6.89-15.85 4.61-10.63 9.23-21.25 13.8-31.9.61-1.42 1.21-2.43 3.03-2.2 1.99.25 4.39-.72 5.9.4 1.35.99 1.79 3.23 2.59 4.94C717.65 579.52 724.07 593.35 730.49 607.19zM714.32 589.59c-3.24-7.81-6.39-15.41-9.78-23.57-2.21 8.47-6.07 15.74-9.03 23.57C701.87 589.59 707.98 589.59 714.32 589.59z"/></g></g></svg>